<svg width="2160" height="2160" viewBox="0 0 2160 2160" fill="none" xmlns="http://www.w3.org/2000/svg">
<rect width="2160" height="2160" fill="inherit"/>
<path d="M990.713 1898.4C982.014 1896.72 977.35 1891.61 972.986 1878.97C968.74 1866.67 969.272 1855.05 974.931 1836.5L979.862 1820.33L979.326 1675.22L978.789 1530.1L969.081 1516.48C963.742 1508.98 955.994 1499.18 951.864 1494.68C944.676 1486.86 944.442 1486.19 946.424 1479.06C949.649 1467.44 949.045 1461.28 944.442 1458.82C942.202 1457.62 940.156 1456.93 939.896 1457.28C939.637 1457.64 938.25 1462.99 936.816 1469.18C935.382 1475.38 933.033 1481.42 931.596 1482.61C929.556 1484.3 928.984 1494.5 928.984 1529.23V1573.68L937.607 1575.85C959.775 1581.43 968.356 1602.8 956.34 1622.5C945.496 1640.28 922.644 1641.4 908.709 1624.84C904.217 1619.5 903.594 1617.03 903.594 1604.56C903.594 1591.87 904.22 1589.49 909.465 1582.25C912.695 1577.79 914.492 1574.14 913.46 1574.14C912.319 1574.14 911.357 1553.26 911.006 1520.92L910.43 1467.7L887.969 1445.23C875.615 1432.88 858.037 1413.54 848.906 1402.27C834.137 1384.02 831.55 1381.69 825.469 1381.18C815.944 1380.38 812.047 1384 810.556 1395.03L809.29 1404.39L850.582 1445.51C873.293 1468.13 891.875 1487.74 891.875 1489.11C891.875 1490.47 890.236 1493.68 888.232 1496.24C886.229 1498.8 882.274 1505.48 879.443 1511.09L874.297 1521.28V1590.87V1660.46L879.902 1665.7C886.668 1672.02 890.493 1686.97 888.08 1697.67C885.66 1708.4 875.498 1720.11 866.182 1722.9C833.672 1732.64 808.858 1688.95 833.556 1665.45C837.792 1661.42 842.465 1658.13 843.939 1658.13C848.125 1658.13 849.36 1636.12 848.605 1574.99C847.819 1511.28 850.878 1520.69 819.371 1485.09L798.125 1461.08L798.098 1444.86C798.061 1421.99 797.295 1419.91 789.397 1421.19C785.582 1421.81 782.432 1421.31 781.598 1419.96C780.539 1418.25 779.529 1418.26 777.443 1419.99C773.653 1423.13 773.987 1428.97 778.106 1431.58C780.553 1433.13 780.831 1434.03 779.082 1434.77C776.048 1436.04 775.629 1480.71 778.599 1486.26C779.829 1488.56 779.865 1490.35 778.697 1491.07C776.19 1492.62 777.562 1506.41 780.314 1507.33C781.516 1507.73 782.5 1509.28 782.5 1510.77C782.5 1512.25 781.325 1513.02 779.888 1512.47C777.798 1511.67 777.442 1514.7 778.107 1527.67C778.982 1544.74 782.161 1550.7 790.387 1550.7C795.369 1550.7 801.397 1559.09 805.29 1571.44C808.415 1581.35 808.411 1582.56 805.228 1592.66C800.798 1606.72 792.29 1613.53 777.658 1614.75C769.387 1615.43 765.626 1614.7 759.424 1611.22C748.309 1604.97 744.611 1595.86 745.783 1577.6C746.926 1559.79 750.438 1551.77 757.118 1551.72L761.992 1551.68L762.097 1493.05C762.154 1460.81 762.782 1432.91 763.491 1431.06C764.201 1429.22 764.154 1427.82 763.387 1427.96C762.62 1428.1 759.136 1427.12 755.645 1425.79C750.018 1423.64 749.297 1422.52 749.297 1415.93C749.297 1409.39 748.111 1407.5 739.454 1400.25C722.75 1386.26 723.323 1389.2 721.54 1308.52C720.673 1269.31 720.465 1233.5 721.077 1228.94C722.425 1218.89 729.704 1209.66 737.658 1207.91C749.463 1205.32 772.768 1222.81 792.989 1249.43C798.088 1256.15 802.97 1261.64 803.837 1261.64C804.705 1261.64 808.66 1265.82 812.626 1270.92C816.592 1276.02 824.043 1284.59 829.185 1289.96C834.326 1295.33 842.783 1305 847.978 1311.45C853.173 1317.89 862.019 1328 867.634 1333.91C891.904 1359.44 912.349 1383.16 911.932 1385.3C911.245 1388.83 935.033 1389.38 943.062 1386.03C948.025 1383.95 950.212 1381.44 951.942 1375.8C953.97 1369.19 953.749 1367.51 950.048 1361.37C943.552 1350.58 935.256 1340.03 921.295 1324.81C914.245 1317.12 901.793 1303.5 893.624 1294.54C885.455 1285.57 867.394 1265.94 853.488 1250.9C810.867 1204.8 794.772 1185.89 790.302 1176.66C786.397 1168.59 785.901 1163.67 784.733 1121.46L783.45 1075.12L760.112 1028.24C747.276 1002.46 734.208 977.136 731.072 971.965C727.937 966.794 725.371 960.422 725.371 957.805C725.371 955.188 724.232 953.047 722.841 953.047C721.449 953.047 719.729 950.398 719.018 947.161C718.162 943.267 713.699 937.814 705.828 931.048C685.2 913.314 667.35 896.406 669.256 896.406C670.265 896.406 677.688 902.701 685.751 910.394C693.814 918.087 704.159 926.506 708.741 929.102C713.322 931.698 718.608 935.208 720.488 936.902C722.368 938.595 723.906 939.125 723.906 938.08C723.906 935.743 701.384 913.648 678.673 893.705C655.146 873.045 646.5 862.625 641.395 848.777C637.855 839.175 636.877 837.825 636.405 841.885C636.083 844.661 637.653 851.587 639.895 857.275C644.841 869.822 643.698 872.48 638.087 861.481C632.159 849.863 629.001 834.202 622.256 782.997C616.558 739.736 611.884 656.172 615.162 656.172C619.138 656.172 620.514 668.528 621.404 712.221C621.947 738.865 622.911 763.18 623.547 766.254C624.183 769.329 625.124 775.481 625.638 779.926C627.06 792.222 627.841 797.675 628.334 798.75C628.58 799.287 628.901 801.045 629.048 802.656C629.969 812.792 634.716 834.08 636.269 835.04C637.335 835.698 637.696 834.245 637.117 831.629C635.216 823.035 628.484 770.434 627.41 755.781C626.819 747.725 625.749 723.774 625.032 702.559C623.821 666.701 623.969 663.984 627.13 663.984C629 663.984 633.003 665.745 636.025 667.897C639.048 670.05 642.917 671.274 644.625 670.619C648.156 669.264 664.236 649.322 671.236 637.617C673.806 633.32 676.936 628.747 678.191 627.455C679.447 626.163 682.117 621.113 684.124 616.232C686.131 611.352 688.405 607.355 689.177 607.351C689.949 607.347 690.093 606.073 689.497 604.519C688.9 602.966 693.201 590.441 699.053 576.687C709.237 552.752 718.195 530.127 731.767 494.062C735.203 484.932 739.14 474.824 740.515 471.602C760.686 424.348 773.922 393.999 777.047 387.841C781.093 379.865 779.896 376.975 772.517 376.905C770.142 376.882 769.62 375.557 770.39 371.504C771.307 366.682 771.079 366.407 768.166 368.813C766.382 370.288 764.922 372.705 764.922 374.184C764.922 375.664 763.164 376.875 761.016 376.875C756.985 376.875 755.738 379.703 758.905 381.66C759.893 382.271 762.083 381.388 763.773 379.698C767.758 375.713 770.774 377.692 770.811 384.314C770.835 388.531 771.242 388.991 772.869 386.641C774.539 384.228 774.78 384.401 774.233 387.617C773.853 389.857 772.277 391.31 770.541 391.023C768.866 390.746 766.474 392.804 765.186 395.631C763.278 399.817 761.823 400.588 757.129 399.899C753.184 399.32 751.038 400.002 750.237 402.089C749.597 403.757 750.003 405.431 751.138 405.809C755.084 407.124 753.341 411.702 749.297 410.644C746.506 409.914 745.391 410.584 745.391 412.989C745.391 415.016 744.34 415.952 742.748 415.341C740.905 414.634 740.263 415.753 740.623 419.039C740.908 421.63 740.441 423.75 739.587 423.75C738.733 423.75 737.517 425.288 736.886 427.168C736.255 429.048 734.614 432.149 733.24 434.06C731.176 436.93 731.251 437.888 733.672 439.579C736.276 441.398 736.276 441.536 733.672 440.817C732.061 440.372 729.778 441.318 728.599 442.917C727.181 444.841 726.018 445.118 725.163 443.735C724.452 442.584 725.257 440.257 726.952 438.562C728.73 436.783 729.539 433.925 728.864 431.8C728.126 429.474 728.796 427.697 730.684 426.972C732.327 426.342 733.672 424.48 733.672 422.835C733.672 421.19 734.551 419.844 735.625 419.844C738.838 419.844 737.832 414.5 734.369 413.171C732.604 412.493 731.066 412.18 730.951 412.474C730.836 412.767 729.631 414.766 728.273 416.914C726.914 419.062 724.851 423.237 723.687 426.191C722.523 429.146 720.951 431.562 720.193 431.562C719.436 431.562 716.665 435.943 714.037 441.298C711.408 446.652 708.599 451.047 707.793 451.063C706.987 451.081 706.328 452.744 706.328 454.761C706.328 456.778 704.99 459.539 703.354 460.896C701.54 462.402 700.86 464.875 701.611 467.239C702.361 469.604 702.075 470.641 700.878 469.901C699.799 469.234 695.53 475.496 691.392 483.817C687.253 492.138 683.164 499.464 682.305 500.098C681.445 500.731 680.602 503.111 680.43 505.385C680.259 507.659 679.747 509.148 679.292 508.693C678.245 507.646 663.359 532.197 663.359 534.971C663.359 536.104 662.7 537.038 661.895 537.046C661.089 537.054 659.413 539.253 658.171 541.932C656.929 544.61 656.709 546.309 657.683 545.707C658.656 545.106 659.453 545.471 659.453 546.519C659.453 547.567 658.794 548.717 657.988 549.076C655.467 550.196 630.33 592.797 623.374 607.739C619.725 615.578 616.682 620.511 616.612 618.701C616.479 615.274 647.985 552.875 671.161 510.664C674.7 504.219 682.614 489.717 688.748 478.437C694.882 467.158 703.01 452.217 706.811 445.234C722.673 416.097 735.976 393.49 737.996 392.242C739.183 391.508 741.332 391.36 742.772 391.913C744.316 392.505 745.391 391.582 745.391 389.664C745.391 387.874 744.512 386.953 743.438 387.617C739.597 389.991 741.572 383.21 746.165 378.254C748.74 375.476 751.274 372.052 751.797 370.644C752.492 368.776 753.12 368.984 754.127 371.416C755.347 374.36 756.047 374.162 760.178 369.705C762.747 366.933 764.435 363.996 763.93 363.178C763.424 362.36 764.268 361.812 765.805 361.959C767.342 362.106 768.565 361.485 768.523 360.579C768.339 356.584 780.423 347.098 794.053 340.539C813.414 331.221 833.884 323.522 879.18 308.52C902.664 300.742 918.799 294.266 923.125 290.881C935.191 281.44 942.416 279.67 978.143 277.4C996.76 276.217 1024.74 274.368 1040.31 273.289C1078.89 270.619 1075.89 270.704 1134.06 270.624C1181.79 270.558 1187.11 270.898 1202.42 274.978C1231.04 282.606 1281.25 300.323 1303.01 310.471C1311.6 314.479 1326.1 321.118 1335.23 325.224C1344.37 329.33 1354.03 334.555 1356.72 336.836C1359.4 339.116 1363.8 342.027 1366.48 343.305C1369.17 344.582 1379.28 351.299 1388.95 358.23C1398.61 365.161 1411.67 374.169 1417.95 378.248C1424.24 382.327 1433.11 388.948 1437.67 392.962C1442.23 396.975 1446.68 399.612 1447.55 398.821C1448.43 398.03 1448.57 398.389 1447.86 399.619C1447.15 400.865 1451.98 407.573 1458.78 414.785C1465.49 421.897 1473.61 430.929 1476.84 434.856C1480.06 438.784 1488.48 448.658 1495.56 456.799C1502.63 464.941 1516.95 482.588 1527.39 496.016C1563.67 542.697 1568.54 548.639 1574.14 553.011C1576.45 554.817 1577.69 556.947 1576.89 557.743C1576.1 558.539 1572.31 555.523 1568.47 551.041C1564.63 546.558 1560.42 542.891 1559.12 542.891C1557.82 542.891 1555.74 546.649 1554.51 551.242C1551.22 563.547 1545.16 565.251 1506.89 564.621C1490.12 564.345 1467.27 565.158 1456.11 566.427C1424.87 569.98 1394.24 569.587 1385.67 565.522C1381.78 563.674 1377.41 562.386 1375.96 562.66C1368.58 564.055 1322.19 549.985 1301.21 539.993C1277.93 528.901 1261.63 521.616 1253.2 518.536C1245.83 515.841 1149.16 473.437 1133.09 465.847C1096.04 448.351 1078.46 440.334 1055.04 430.244C1046.49 426.56 1038.58 422.855 1037.46 422.009C1034.54 419.798 1004.91 408.419 1000.27 407.73C998.125 407.41 995.734 406.27 994.96 405.195C994.128 404.04 990.935 405.859 987.147 409.647C981.939 414.856 981.271 416.382 983.57 417.814C985.39 418.948 983.301 419.227 977.711 418.597C969.421 417.663 969.739 417.93 984.648 424.425C993.242 428.169 1009.06 434.931 1019.8 439.452C1030.55 443.972 1041.65 449.305 1044.47 451.303C1047.3 453.3 1058.73 458.983 1069.86 463.931C1115.11 484.03 1148.01 499.274 1207.3 527.614C1271.67 558.38 1267.8 556.771 1270.83 553.97C1272.78 552.173 1273.06 552.394 1272.14 554.998C1271.34 557.302 1272.29 558.704 1275.28 559.586C1281.66 561.473 1318.61 583.476 1322.37 587.62C1328.27 594.141 1339.43 613.972 1345.01 627.852C1348.03 635.371 1353.29 647.676 1356.69 655.195C1360.1 662.715 1366.87 678.975 1371.74 691.328C1376.61 703.682 1382.25 717.476 1384.28 721.983C1386.31 726.489 1388.06 733.081 1388.16 736.631C1388.45 746.081 1390.61 752.442 1393.88 753.439C1396.2 754.147 1396.29 753.815 1394.32 751.729C1392.97 750.305 1391.9 746.899 1391.93 744.16C1391.99 739.821 1392.25 739.622 1393.99 742.613C1395.09 744.502 1395.52 746.819 1394.93 747.763C1394.35 748.707 1395.3 750.669 1397.06 752.123C1398.81 753.577 1404.95 764.675 1410.71 776.786C1419.1 794.453 1421.13 800.633 1420.95 808.055C1420.82 813.142 1420.35 815.547 1419.91 813.398C1416.61 797.582 1414.78 793.146 1412.48 795.441C1411.18 796.745 1409.52 800.159 1408.8 803.027C1408.08 805.896 1406.4 809.406 1405.06 810.828C1397.43 818.909 1397.04 820.145 1400.96 823.682C1405.24 827.558 1405.73 833.228 1401.69 832.324C1397.32 831.346 1389.09 824.878 1381.44 816.409C1377.52 812.068 1373.65 808.484 1372.84 808.445C1370.8 808.348 1359.28 798.772 1361.18 798.76C1362.03 798.754 1365.07 800.288 1367.94 802.168C1370.82 804.048 1372.49 804.481 1371.66 803.131C1369.69 799.948 1358.99 794.414 1357.08 795.594C1354.76 797.029 1337.19 792.776 1337.19 790.779C1337.19 788.058 1329.82 788.632 1328.88 791.426C1328.23 793.344 1327.38 793.31 1324.9 791.264C1323.04 789.725 1320.03 789.206 1317.55 789.995C1315.24 790.728 1310.37 791.328 1306.72 791.328C1302.51 791.328 1300.56 792.09 1301.38 793.418C1302.21 794.763 1301.43 795.029 1299.17 794.165C1297.25 793.427 1294.47 793.825 1292.99 795.049C1289.7 797.784 1289.41 794.577 1292.66 791.328C1293.95 790.039 1294.17 788.983 1293.14 788.98C1292.12 788.978 1291.18 785.109 1291.05 780.384L1290.81 771.791L1303.35 767.677C1310.69 765.267 1318.07 764.041 1321.16 764.717C1330.02 766.652 1345.58 773.605 1351.99 778.495C1355.33 781.042 1358.97 783.125 1360.07 783.125C1361.18 783.125 1364.62 786.101 1367.73 789.738C1370.84 793.375 1377.9 800.419 1383.43 805.392C1392.71 813.729 1393.74 814.187 1396.66 811.268C1398.89 809.034 1399.23 807.391 1397.82 805.688C1396.72 804.36 1396.34 802.754 1396.97 802.118C1397.61 801.483 1397.49 799.932 1396.71 798.671C1395.8 797.193 1394.86 797.08 1394.07 798.353C1393.4 799.438 1392.64 795.41 1392.37 789.401C1391.77 775.858 1377.84 732.728 1364.52 703.212C1359.16 691.321 1354.77 680.808 1354.77 679.848C1354.77 678.888 1353.45 675.585 1351.85 672.508C1350.24 669.432 1348.92 665.552 1348.92 663.887C1348.91 662.222 1348.11 660.024 1347.15 659.004C1346.18 657.983 1342.21 649.238 1338.33 639.57C1321.71 598.139 1311.54 586.546 1279.47 572.422C1268.78 567.716 1254.77 561.446 1248.32 558.488C1241.88 555.529 1228.94 549.84 1219.58 545.846C1210.23 541.851 1201.55 537.355 1200.3 535.854C1199.06 534.353 1197.2 533.125 1196.18 533.125C1195.16 533.125 1193.01 531.807 1191.4 530.195C1189.79 528.584 1186.85 527.266 1184.87 527.266C1180.07 527.266 1172.73 524.015 1116.55 496.999C1090.26 484.361 1063.02 471.606 1056 468.657C1048.98 465.707 1029.62 456.98 1012.97 449.264C958.512 424.028 955.534 422.803 952.775 424.509C951.03 425.587 943.477 422.046 926.055 411.98C900.172 397.027 892.715 395.958 886.59 406.327C884.777 409.397 882.148 412.348 880.748 412.885C877.648 414.075 877.557 412.981 880.329 407.803C882.192 404.321 882.029 404.07 879.003 405.763C873.138 409.046 854.851 443.342 850.912 458.447C848.133 469.104 850.079 481.517 854.016 478.249C856.211 476.428 856.72 477.061 856.726 481.616C856.732 487.049 857.151 486.808 869.909 474.048C886.154 457.801 886.016 457.924 886.016 459.747C886.016 460.568 880.157 467.307 872.997 474.724C865.837 482.14 860.344 488.427 860.79 488.694C861.237 488.961 864.151 490.498 867.268 492.109C876.585 496.927 877.656 500.529 871.684 506.97C868.824 510.054 866.484 513.319 866.484 514.225C866.484 517.444 794.827 597.364 780.661 609.945C778.038 612.274 773.204 616.917 769.919 620.262C766.633 623.607 762.188 626.991 760.039 627.782C756.264 629.171 756.281 629.277 760.571 630.93C763.011 631.871 765.522 633.98 766.151 635.617C767.997 640.43 770.322 639.025 769.306 633.711C768.761 630.861 769.281 628.828 770.554 628.828C771.753 628.828 772.734 627.88 772.734 626.721C772.734 622.982 822.396 572.225 826.072 572.206C828.016 572.196 829.063 571.31 828.401 570.238C826.851 567.73 829.42 564.161 846.023 545.761C853.517 537.455 860.455 529.271 861.441 527.574C862.427 525.877 865.943 521.519 869.254 517.891C872.564 514.262 876.022 509.972 876.936 508.357C879.426 503.96 890.913 506.775 902.948 514.731C908.501 518.402 913.868 521.406 914.875 521.406C915.882 521.406 924.082 525.621 933.099 530.772C942.115 535.923 967.07 548.8 988.555 559.388C1010.04 569.975 1037.72 584.016 1050.08 590.589C1062.43 597.162 1077.37 604.697 1083.28 607.335C1089.19 609.972 1097.1 614.028 1100.86 616.348C1114.34 624.666 1202.66 669.844 1205.44 669.844C1207 669.844 1208.28 671.325 1208.28 673.136C1208.28 674.946 1209.98 678.242 1212.06 680.46C1214.14 682.678 1218.65 691.523 1222.09 700.117C1227.56 713.797 1228.32 717.931 1228.22 733.32C1228.05 757.162 1220.39 783.011 1212.62 785.995C1211.19 786.54 1210.58 786.098 1211.25 785.013C1213.31 781.683 1190.73 772.418 1180.94 772.572C1171.13 772.727 1124.58 787.461 1100.62 797.996C1086.98 803.993 1055.56 820.371 1036.91 831.203C1033.42 833.227 1030.57 835.559 1030.56 836.385C1030.54 838.449 1040.98 835.736 1042.6 833.255C1043.32 832.153 1045.38 831.036 1047.17 830.772C1051.44 830.146 1053.48 828.067 1049.92 827.978C1048.39 827.94 1049.35 826.652 1052.03 825.117C1058 821.704 1060.53 821.443 1058.69 824.431C1057.92 825.666 1060.73 824.814 1064.92 822.54C1095.56 805.91 1168.21 777.266 1179.75 777.266C1182.07 777.266 1186.14 778.782 1188.79 780.635C1191.43 782.488 1195.36 784.274 1197.51 784.602C1199.67 784.931 1202.72 786.491 1204.3 788.069C1206.82 790.592 1206.66 790.938 1202.99 790.938C1200.69 790.938 1196.33 793.004 1193.29 795.53C1190.26 798.055 1185.14 801.062 1181.91 802.211L1176.05 804.301L1181.73 804.455C1184.85 804.54 1190.12 802.558 1193.45 800.051C1200.16 794.993 1213.07 789.875 1211.11 793.054C1210.44 794.133 1210.96 796.295 1212.26 797.859C1214.21 800.209 1213.81 800.732 1209.99 800.871C1205.89 801.019 1206.04 801.243 1211.21 802.789C1216.52 804.374 1235.13 803.816 1250.27 801.62C1254.68 800.981 1255.34 801.237 1252.96 802.65C1251.21 803.683 1239.01 805.206 1225.83 806.034L1201.88 807.539L1201.18 813.948L1200.49 820.356L1221.47 819.236C1233.02 818.619 1254.33 817.247 1268.83 816.187C1283.33 815.126 1298.27 814.174 1302.03 814.071C1312.8 813.776 1343.52 818.436 1348.91 821.181C1351.59 822.55 1356.87 824.331 1360.63 825.138C1375.06 828.239 1387.52 835.725 1398.73 848.036L1409.88 860.273L1408.55 851.484C1407.81 846.65 1406.79 840.937 1406.28 838.789C1405.36 834.936 1405.39 834.935 1408.38 838.674C1410.04 840.759 1411.41 845.341 1411.41 848.856C1411.41 852.37 1413.06 859.453 1415.08 864.596C1417.1 869.738 1419.37 879.38 1420.14 886.023C1421.18 895.062 1422.2 897.843 1424.19 897.078C1426.32 896.262 1426.5 897.315 1425.08 902.254C1421.91 913.328 1414.02 924.472 1400.18 937.422C1369.33 966.302 1339.01 992.109 1335.92 992.109C1335.16 992.109 1332.28 994.621 1329.52 997.691C1324.11 1003.69 1298.01 1016.16 1284.16 1019.35C1273.03 1021.92 1247.34 1021.99 1247.34 1019.45C1247.34 1018.38 1243.85 1017.5 1239.59 1017.5C1230.16 1017.5 1213.34 1010.31 1199.78 1000.49C1185.92 990.452 1165.31 970.587 1165.31 967.27C1165.31 965.7 1164.35 965.129 1163.06 965.929C1161.8 966.708 1161.33 966.472 1161.99 965.395C1162.65 964.335 1159.92 960.464 1155.93 956.793C1151.94 953.121 1145.67 945.723 1142 940.352C1138.33 934.98 1132.83 927.07 1129.78 922.773C1126.74 918.477 1121.49 911.006 1118.12 906.172L1112 897.383L1120.2 905.195C1124.71 909.492 1132.09 917.739 1136.6 923.522C1141.11 929.304 1152.85 943.153 1162.67 954.296C1196.39 992.521 1219.35 1009.06 1244.54 1013.28C1273.04 1018.04 1272.3 1018.08 1278.55 1011.69C1283.9 1006.21 1300.08 998.729 1300.08 1001.73C1300.08 1002.48 1296.34 1005 1291.78 1007.34C1283.61 1011.52 1283.57 1011.59 1289.34 1011.6C1292.56 1011.6 1299.88 1008.92 1305.61 1005.63C1317.17 999.001 1346.95 971.559 1346.95 967.533C1346.95 966.118 1348.2 964.257 1349.73 963.398C1353.54 961.262 1354.55 950.794 1351.08 949.58C1349.42 949.003 1348.89 949.495 1349.73 950.84C1350.48 952.054 1350.16 953.047 1349.02 953.047C1347.88 953.047 1346.95 952.116 1346.95 950.978C1346.95 949.841 1346.11 949.43 1345.09 950.065C1344.06 950.699 1343.77 952.653 1344.44 954.406C1345.2 956.38 1344.88 957.108 1343.6 956.318C1342.47 955.617 1340.45 956.352 1339.12 957.951C1337.8 959.551 1335.22 960.859 1333.41 960.859C1331.6 960.859 1328.39 962.464 1326.28 964.426C1324.18 966.388 1321.46 967.66 1320.24 967.254C1319.02 966.847 1316.69 968.415 1315.06 970.737C1313.44 973.06 1310.94 974.539 1309.51 974.024C1308.08 973.509 1305.52 974.297 1303.82 975.776C1302.11 977.254 1293.32 980.243 1284.28 982.417C1275.25 984.591 1264.49 987.383 1260.39 988.621C1254.7 990.338 1250.53 990.313 1242.81 988.515C1237.25 987.218 1230.94 985.841 1228.79 985.453C1220.06 983.878 1195.48 969.284 1183.94 958.828C1177.18 952.701 1163.5 939.006 1153.55 928.395C1117.48 889.93 1114.15 886.641 1111.37 886.641C1107.28 886.641 1105.85 892.021 1108.94 895.774C1111.36 898.704 1111.18 898.774 1107 896.545C1104.47 895.195 1101.67 894.832 1100.79 895.737C1098.86 897.729 1097.09 917.652 1095.69 953.047C1095.12 967.549 1094.19 982.766 1093.62 986.863C1092.99 991.41 1093.98 998.637 1096.15 1005.42C1098.1 1011.53 1099.46 1018.08 1099.17 1019.99C1098.88 1021.9 1101.34 1027.13 1104.63 1031.61C1107.93 1036.09 1110.63 1041.39 1110.63 1043.38C1110.63 1045.37 1112.68 1050.04 1115.2 1053.74L1119.78 1060.48L1123.42 1056.46C1126.6 1052.94 1126.72 1051.9 1124.38 1048.15C1122.1 1044.48 1122.11 1044.19 1124.47 1046.16C1128.7 1049.68 1134.55 1060.47 1132.22 1060.47C1131.08 1060.47 1130.16 1059.15 1130.16 1057.54C1130.16 1053.03 1127.48 1054.09 1124.92 1059.6C1122.9 1063.97 1123.44 1065.93 1129.49 1076.09C1133.27 1082.43 1137.6 1088.65 1139.12 1089.91C1140.63 1091.17 1141.88 1093.16 1141.88 1094.33C1141.88 1095.51 1145.89 1100.54 1150.79 1105.52C1155.7 1110.5 1159.93 1115.81 1160.19 1117.31C1160.78 1120.66 1167 1130.55 1171.78 1135.73C1178.48 1142.99 1186.64 1154.57 1187.94 1158.65C1188.65 1160.9 1191.76 1166.23 1194.85 1170.49C1197.94 1174.75 1200.47 1179.21 1200.46 1180.39C1200.46 1181.57 1202.56 1187.81 1205.12 1194.26C1210.06 1206.67 1212.06 1213.47 1221.75 1250.9C1245.83 1343.95 1252.32 1381.56 1247.35 1399.31C1244.18 1410.63 1229.78 1424.48 1217.79 1427.75C1198.31 1433.07 1158.96 1427.62 1148.73 1418.19C1145.5 1415.21 1139.34 1410.22 1135.04 1407.1C1130.74 1403.98 1116.24 1390.84 1102.81 1377.9C1089.38 1364.96 1075.1 1351.55 1071.07 1348.1C1067.05 1344.66 1063.75 1341.31 1063.75 1340.65C1063.75 1339.46 1047.65 1322.37 1020.78 1295.04C1012.72 1286.84 997.952 1270.92 987.953 1259.66C963.936 1232.6 924.793 1191.33 923.155 1191.33C922.128 1191.33 901.199 1206.84 897.947 1210.01C896.774 1211.16 913.09 1231.7 919.966 1237.74C923.321 1240.69 934.823 1252.32 945.525 1263.6C997.093 1317.94 1050.16 1371.13 1056.13 1374.47C1061.6 1377.53 1067.39 1379.69 1075.47 1381.68C1079.07 1382.57 1089.24 1389.23 1095 1394.48C1098.76 1397.9 1104.62 1403.03 1108.02 1405.88L1114.2 1411.05L1105.09 1429.48L1095.98 1447.9L1095.51 1604.28C1095.2 1705.33 1094.32 1763.24 1093 1767.94C1090.79 1775.83 1081.92 1783.89 1072.99 1786.12C1066.55 1787.73 1056.57 1784.05 1053.91 1779.08C1052.76 1776.92 1052.03 1719.67 1052.03 1630.58C1052.03 1550.84 1051.56 1486.07 1050.98 1486.65C1050.4 1487.23 1049.97 1548.9 1050.04 1623.69C1050.1 1698.49 1049.6 1761.88 1048.93 1764.57C1048.25 1767.25 1046.48 1769.45 1044.98 1769.45C1042.69 1769.45 1042.25 1749.4 1042.2 1641.04C1042.16 1570.41 1041.69 1507.34 1041.16 1500.9C1038.67 1470.59 1038.39 1469.43 1032.15 1463.56C1028.85 1460.46 1021.73 1452.66 1016.32 1446.21C1010.91 1439.77 1001.18 1429.76 994.698 1423.97L982.912 1413.44L979.974 1419.64C977.544 1424.77 977.423 1427.69 979.272 1436.5C982.032 1449.66 992.096 1471.14 998.25 1477C1007 1485.33 1021.13 1502.89 1025.34 1510.66L1029.57 1518.48L1029.67 1672.77C1029.76 1813.53 1030.06 1827.82 1033.1 1835.67C1037 1845.71 1039.68 1865.16 1037.16 1865.15C1036.21 1865.15 1035.56 1869.1 1035.72 1873.93C1036.08 1884.64 1031.98 1890.51 1020.16 1896.24C1011.52 1900.42 1004.04 1900.97 990.713 1898.4ZM1007.11 1890.55C1007.11 1889.47 1006.28 1888.59 1005.27 1888.59C1004.26 1888.59 1002.89 1889.47 1002.23 1890.55C1001.56 1891.62 1002.39 1892.5 1004.06 1892.5C1005.74 1892.5 1007.11 1891.62 1007.11 1890.55ZM796.172 1411.05C796.172 1409.44 795.293 1408.13 794.219 1408.13C793.145 1408.13 792.266 1409.44 792.266 1411.05C792.266 1412.67 793.145 1413.98 794.219 1413.98C795.293 1413.98 796.172 1412.67 796.172 1411.05ZM948.516 1184.23C948.516 1178.7 943.446 1168.04 940.442 1167.26C938.221 1166.68 936.797 1164.55 936.797 1161.82C936.797 1158.59 936.204 1157.94 934.67 1159.47C932.058 1162.08 942.302 1185.42 946.074 1185.45C947.417 1185.46 948.516 1184.91 948.516 1184.23ZM955.189 1166.45C955.1 1161.97 955.759 1158.75 956.654 1159.3C957.549 1159.86 958.281 1159.43 958.281 1158.36C958.281 1156.18 954.694 1153.55 950.957 1152.98C949.614 1152.78 948.516 1153.46 948.516 1154.51C948.516 1155.55 947.56 1155.81 946.392 1155.09C944.863 1154.15 944.863 1153.18 946.392 1151.65C949.821 1148.23 948.874 1144.73 944.805 1145.79C940.711 1146.86 938.599 1155.33 940.941 1161.29C942.23 1164.58 942.396 1164.6 942.519 1161.54C942.595 1159.66 943.638 1158.13 944.837 1158.13C946.094 1158.13 946.562 1159.87 945.942 1162.24C944.332 1168.4 947.879 1176.12 951.939 1175.3C954.565 1174.77 955.314 1172.73 955.189 1166.45ZM963.754 1162.41C964.062 1151.23 963.859 1150.78 948.449 1128.72C939.859 1116.43 932.362 1104.17 931.788 1101.48C931.214 1098.8 929.934 1093.53 928.943 1089.77C927.953 1086.01 926.703 1072.59 926.166 1059.96C925.629 1047.32 924.286 1035.29 923.181 1033.23C920.096 1027.46 920.657 1026.28 927.691 1023.74C951.16 1015.25 980.255 984.991 1000.3 948.219C1015.36 920.594 1021.64 897.781 1023.93 862.4C1024.67 850.954 1025.87 841.216 1026.61 840.76C1027.35 840.305 1027.24 835.72 1026.37 830.572C1025.5 825.423 1023.41 810.369 1021.71 797.117C1018.56 772.425 1011.17 747.94 1002.68 733.976C992.185 716.737 979.888 699.533 972.891 692.305C968.732 688.008 965.523 683.768 965.76 682.882C965.997 681.997 965.291 681.828 964.192 682.507C963.094 683.186 960.215 682.272 957.796 680.476L953.398 677.211L958.078 678.302C962.254 679.275 962.044 678.783 956.125 673.721C952.477 670.602 947.421 668.014 944.889 667.97C941.454 667.911 940.595 667.084 941.505 664.713C942.686 661.634 940.052 658.568 932.402 654.117C930.046 652.746 928.984 652.771 928.984 654.198C928.984 655.337 931.401 657.23 934.356 658.406C937.401 659.618 938.664 660.938 937.273 661.454C935.924 661.955 935.316 663.169 935.923 664.151C937.597 666.858 936.061 666.382 925.567 660.937C915.852 655.897 891.144 651.203 882.763 652.805C880.32 653.272 878.786 652.902 879.354 651.983C879.922 651.064 878.797 650.286 876.854 650.253C873.757 650.201 873.703 649.97 876.414 648.384C879.355 646.664 894.176 648.088 914.824 652.074C922.9 653.633 926.752 651.312 919.707 649.132C917.827 648.55 914.531 647.089 912.383 645.885C910.234 644.681 900.313 643.321 890.334 642.862C870.523 641.951 865.604 643.177 840.117 655.379C813.549 668.098 791.666 691.159 769.87 729.407C761.691 743.759 751.147 772.131 747.152 790.535C743.172 808.869 740.335 831.896 741.989 832.447C742.934 832.762 742.908 835.149 741.93 837.853C738.044 848.599 748.375 900.533 759.989 928.633C765.949 943.053 770.864 954.001 772.704 956.953C780.067 968.766 784.453 977.461 784.453 980.24C784.453 982.036 789.287 987.856 795.195 993.174C801.103 998.492 805.937 1003.87 805.937 1005.13C805.937 1012.8 844.125 1041.35 874.96 1056.74C886.598 1062.54 894.789 1068.22 900.09 1074.14C904.416 1078.97 911.808 1087.04 916.517 1092.07C921.225 1097.09 925.078 1101.7 925.078 1102.3C925.078 1103.39 929.723 1109.38 934.355 1114.26C935.698 1115.67 936.797 1117.74 936.797 1118.85C936.797 1119.96 938.648 1122.59 940.911 1124.7C943.35 1126.97 944.42 1129.51 943.539 1130.93C942.594 1132.46 942.86 1132.84 944.272 1131.97C945.629 1131.13 949.213 1134.85 953.494 1141.54C959.103 1150.31 960.565 1154.6 960.837 1163.12C961.288 1177.24 963.359 1176.74 963.754 1162.41ZM873.32 1029.75C862.504 1028.21 864.591 1026.28 876.348 1026.95C882.748 1027.32 887.49 1028.41 886.885 1029.39C885.769 1031.2 883.83 1031.25 873.32 1029.75ZM856.719 1025.31C854.958 1024.17 854.718 1023.41 856.115 1023.39C857.395 1023.37 858.985 1024.24 859.648 1025.31C861.147 1027.74 860.471 1027.74 856.719 1025.31ZM880.156 1021.65C880.156 1020.71 882.447 1019.94 885.248 1019.94C888.841 1019.94 889.559 1020.44 887.689 1021.62C884.24 1023.81 880.156 1023.82 880.156 1021.65ZM903.645 1014.93C906.565 1011.77 919.685 1003.84 917.355 1006.65C915.851 1008.46 911.92 1011.32 908.619 1012.99C905.318 1014.67 903.08 1015.54 903.645 1014.93ZM926.66 997.978C930.216 994.521 933.658 992.226 934.31 992.878C934.962 993.529 935.129 994.285 934.681 994.557C934.233 994.83 930.791 997.125 927.031 999.658L920.195 1004.26L926.66 997.978ZM867.461 999.635C832.693 988.173 826.465 985.265 815.23 975.24C800.057 961.701 784.453 940.472 784.453 933.368C784.453 932.007 782.979 929.264 781.177 927.273C779.11 924.989 777.848 920.135 777.759 914.124C777.681 908.883 776.958 905.002 776.152 905.499C775.347 905.996 774.688 904.545 774.688 902.275C774.688 900.005 772.522 890.446 769.876 881.034C767.229 871.621 765.137 859.584 765.225 854.284C765.314 848.984 764.918 839.814 764.345 833.906C762.631 816.221 768.395 786.445 777.91 763.833C789.666 735.896 806.269 711.011 820.802 699.544C831.727 690.924 854.351 679.749 868.935 675.771C883.296 671.853 923.444 676.306 920.257 681.463C919.698 682.367 920.6 683.628 922.261 684.265C923.971 684.921 924.769 684.596 924.102 683.516C923.434 682.435 924.232 682.11 925.942 682.766C927.603 683.403 928.571 684.557 928.094 685.33C927.616 686.102 929.159 686.67 931.523 686.59C934.11 686.503 935.607 687.475 935.283 689.034C934.933 690.722 935.971 691.234 938.267 690.505C940.826 689.693 945.597 693.257 955.714 703.541C990.205 738.6 1007.45 784.121 1007.32 839.766C1007.27 859.299 1003.09 889.315 999.479 896.065C998.305 898.26 997.344 901.8 997.344 903.931C997.344 916.63 958.246 978.075 948.858 980.13C947.058 980.524 943.389 982.336 940.703 984.157C938.018 985.977 929.539 990.708 921.863 994.671C908.745 1001.44 906.865 1001.87 890.613 1001.72C881.102 1001.64 870.684 1000.7 867.461 999.635ZM891.669 978.335C911.394 975.134 936.099 957.473 948.899 937.422C951.985 932.588 955.138 928.557 955.907 928.464C959.621 928.016 964.142 925.049 964.153 923.053C964.159 921.825 965.562 918.184 967.271 914.961C972.192 905.677 974.16 899.925 971.947 901.293C970.876 901.955 970 903.628 970 905.012C970 906.395 968.105 909.639 965.789 912.221C962.239 916.178 961.823 916.301 963.136 913.008C963.992 910.859 965.089 906.816 965.572 904.023C966.056 901.229 969.453 895.569 973.123 891.445C977.421 886.613 979.404 882.719 978.699 880.496C977.098 875.453 979.801 863.269 982.412 863.76C983.688 863.999 984.909 861.034 985.255 856.855C985.75 850.874 985.212 849.526 982.325 849.501C979.558 849.478 979.374 849.101 981.477 847.769C985.251 845.378 985.657 831.883 982.541 812.344C979.499 793.262 977.006 785.491 967.999 767.02C960.767 752.19 942.111 728.44 936.55 726.986C934.537 726.459 932.891 724.813 932.891 723.327C932.891 721.841 931.196 720.625 929.124 720.625C927.052 720.625 924.174 719.442 922.728 717.996C920.258 715.525 912.872 711.881 901.641 707.59C893.033 704.301 868.413 705.976 858.089 710.553C840.848 718.196 823.469 732.36 808.583 750.898C797.164 765.12 797.137 765.657 808.113 760.187C822.493 753.022 849.773 751.694 863.156 757.509C872.84 761.716 886.754 771.319 885.29 772.783C884.832 773.241 878.948 770.834 872.215 767.435C854.955 758.722 839.21 757.338 818.119 762.681C809.243 764.93 801.006 767.744 799.815 768.935C798.624 770.126 796.608 770.701 795.335 770.213C791.973 768.923 782.041 783.93 775.806 799.722C769.538 815.599 766.78 844.565 770.481 855.644C772.485 861.639 772.422 861.888 769.778 858.435C768.181 856.35 766.885 855.471 766.896 856.482C766.927 859.151 772.093 875.773 774.222 880.055C787.601 906.957 792.101 914.375 799.814 922.243C804.793 927.322 809.851 931.497 811.054 931.52C812.257 931.543 818.65 933.291 825.261 935.403C834.031 938.204 838.589 938.745 842.117 937.404C845.347 936.176 846.953 936.242 846.953 937.602C846.953 938.722 848.491 939.213 850.371 938.694C852.251 938.175 858.058 937.169 863.275 936.459C875.297 934.821 873.954 938.422 861.359 941.593C856.335 942.858 853.292 944.542 854.267 945.517C855.242 946.492 859.897 946.044 865.116 944.473C901.468 933.533 926.586 896.695 928.584 851.389C930.601 805.673 917.036 769.731 890.878 751.483C871.103 737.687 841.26 734.594 826.263 744.784C822.189 747.553 818.365 749.318 817.767 748.705C815.948 746.843 836.365 729.199 848.366 722.263C858.995 716.12 860.724 715.742 878.203 715.742C895.312 715.742 897.595 716.212 907.5 721.769C920.866 729.269 938.464 746.126 945.045 757.734C955.788 776.683 961.939 805.148 962.175 837.012C962.473 877.301 954.352 906.449 935.287 933.516C932.639 937.275 931.028 938.594 931.707 936.445C932.716 933.253 932.232 933.431 929.054 937.422C926.915 940.107 925.146 943.779 925.122 945.581C925.055 950.572 897.776 967.92 886.035 970.438C872.265 973.392 858.732 973.115 849 969.682C838.123 965.844 839.277 969.809 850.812 975.909C860.309 980.932 871.551 981.599 891.669 978.335ZM873.435 934.43C870.364 932.107 870.231 931.563 872.738 931.563C874.44 931.563 876.338 932.881 876.956 934.492C878.318 938.042 878.208 938.04 873.435 934.43ZM880.156 933.516C880.156 932.441 881.087 931.563 882.225 931.563C883.362 931.563 883.75 932.441 883.086 933.516C882.422 934.59 881.491 935.469 881.018 935.469C880.544 935.469 880.156 934.59 880.156 933.516ZM956.39 926.565C956.356 925.427 957.619 922.791 959.196 920.705C960.773 918.62 962.091 917.845 962.125 918.982C962.16 920.12 960.897 922.756 959.32 924.842C957.743 926.927 956.424 927.702 956.39 926.565ZM884.063 893.716C884.063 893.31 885.401 891.867 887.037 890.51C889.524 888.446 889.81 888.567 888.781 891.247C887.731 893.985 884.063 895.904 884.063 893.716ZM891.309 880.781C891.871 878.633 893.138 876.875 894.125 876.875C895.116 876.875 894.983 878.623 893.828 880.781C892.678 882.93 891.411 884.688 891.013 884.688C890.614 884.688 890.747 882.93 891.309 880.781ZM911.406 879.059C911.406 877.984 912.285 876.562 913.359 875.898C914.434 875.235 915.313 875.57 915.313 876.644C915.313 877.719 914.434 879.141 913.359 879.805C912.285 880.469 911.406 880.133 911.406 879.059ZM897.339 866.951C896.822 865.427 897.316 861.104 898.436 857.344C899.557 853.584 900.381 839.082 900.267 825.117C900.118 806.946 900.594 801.113 901.941 804.601C904.57 811.411 903.424 862.689 900.555 866.612C898.662 869.201 898.122 869.258 897.339 866.951ZM915.313 866.248C915.313 864.7 916.109 862.941 917.084 862.339C918.058 861.737 918.394 863.004 917.832 865.154C916.64 869.714 915.313 870.291 915.313 866.248ZM978.873 841.854C978.255 840.854 978.642 839.483 979.734 838.809C980.826 838.134 981.719 838.952 981.719 840.627C981.719 844.058 980.547 844.563 978.873 841.854ZM977.217 824.029C976.359 820.746 976.671 820.429 978.921 822.297C980.436 823.555 981.194 825.363 980.605 826.315C979.012 828.893 978.378 828.465 977.217 824.029ZM975.177 813.461C974.572 811.884 974.917 810.074 975.945 809.44C976.972 808.805 977.813 810.095 977.813 812.307C977.813 817.023 976.726 817.498 975.177 813.461ZM971.903 796.589C970.173 789.377 969.002 787.349 967.674 789.265C966.353 791.171 966.149 790.792 966.948 787.916C967.649 785.392 965.022 777.833 959.819 767.408C949.148 746.027 949.135 745.99 954.56 752.755C964.235 764.821 980.939 806.563 976.091 806.563C975.104 806.563 973.219 802.074 971.903 796.589ZM896.395 789.473C895.726 787.593 894.739 785.26 894.202 784.288C893.664 783.316 894.133 783.083 895.244 783.769C897.278 785.027 900.057 792.891 898.467 792.891C897.997 792.891 897.064 791.353 896.395 789.473ZM837.77 968.736C836.804 965.04 831.328 959.031 831.328 961.666C831.328 963.092 837.307 972.578 838.206 972.578C838.519 972.578 838.323 970.849 837.77 968.736ZM821.621 959.015C820.503 956.926 818.623 954.621 817.443 953.892C816.263 953.163 816.809 954.871 818.655 957.689C822.564 963.656 824.589 964.561 821.621 959.015ZM813.031 954.407C812.825 953.006 808.78 948.392 804.041 944.153L795.425 936.445L801.634 945.552C805.049 950.561 808.953 955.106 810.309 955.652C811.664 956.198 812.915 956.714 813.089 956.799C813.262 956.884 813.236 955.807 813.031 954.407ZM913.359 953.047C913.359 951.973 912.481 951.094 911.406 951.094C910.332 951.094 909.453 951.973 909.453 953.047C909.453 954.121 910.332 955 911.406 955C912.481 955 913.359 954.121 913.359 953.047ZM783.393 916.072C784.011 915.072 783.624 913.702 782.532 913.027C781.44 912.353 780.547 913.171 780.547 914.846C780.547 918.276 781.719 918.782 783.393 916.072ZM954.375 881.967C954.375 881.545 953.011 880.676 951.344 880.036C949.606 879.369 948.822 879.696 949.506 880.804C950.653 882.659 954.375 883.549 954.375 881.967ZM870.391 652.266C868.779 651.224 868.34 650.372 869.414 650.372C870.488 650.372 872.686 651.224 874.297 652.266C875.908 653.307 876.348 654.159 875.273 654.159C874.199 654.159 872.002 653.307 870.391 652.266ZM946.563 1139.34C946.563 1137.73 945.684 1136.95 944.609 1137.62C943.535 1138.28 942.656 1140.14 942.656 1141.75C942.656 1143.37 943.535 1144.14 944.609 1143.48C945.684 1142.81 946.563 1140.95 946.563 1139.34ZM1094.02 978.002C1095.14 977.17 1094.51 976.531 1092.56 976.514C1090.66 976.497 1089.14 977.93 1089.14 979.74C1089.14 981.53 1089.8 982.199 1090.61 981.227C1091.41 980.255 1092.95 978.804 1094.02 978.002ZM1078.72 968.184C1078.17 966.841 1077.73 967.939 1077.73 970.625C1077.73 973.311 1078.17 974.409 1078.72 973.066C1079.26 971.724 1079.26 969.526 1078.72 968.184ZM1290.63 954.286C1294.85 954.175 1297.35 953.766 1296.18 953.376C1293.42 952.457 1297.57 947.188 1301.05 947.188C1302.4 947.188 1304.59 945.879 1305.92 944.279C1307.25 942.68 1309.13 941.867 1310.11 942.472C1312.85 944.161 1325.47 930.538 1325.47 925.898C1325.47 923.643 1326.35 921.797 1327.42 921.797C1328.5 921.797 1329.39 924.653 1329.4 928.145C1329.43 932.493 1329.97 933.649 1331.13 931.816C1332.5 929.658 1333.22 929.846 1334.87 932.793C1336.78 936.186 1337.02 936.206 1338.23 933.067C1341.52 924.508 1324.77 903.761 1304.26 891.006C1289.82 882.024 1261.81 874.908 1233.67 873.07L1213.16 871.731L1235.63 871.441C1291.57 870.72 1324.35 886.989 1343.06 924.758C1353.41 945.647 1355.79 947.4 1354.08 932.883C1350.33 900.976 1329.48 874.556 1301.35 866.061C1278.45 859.147 1252.25 856.784 1224.05 859.093C1209.47 860.286 1195.78 861.606 1193.63 862.026C1191.48 862.446 1182.7 863.789 1174.1 865.011C1152.54 868.078 1150.39 868.641 1146.89 872.135C1145.21 873.821 1143.83 874.265 1143.83 873.12C1143.83 870.926 1130.57 871.819 1128.42 874.158C1127.76 874.872 1129.64 875.018 1132.6 874.483C1135.55 873.948 1137.97 874.206 1137.97 875.057C1137.97 875.907 1135.99 876.884 1133.57 877.227C1131.16 877.571 1129.39 878.73 1129.65 879.805C1130.43 883.101 1142.09 882.624 1158.48 878.624C1167.07 876.527 1182.89 874.45 1193.63 874.008C1204.38 873.566 1210.97 873.63 1208.28 874.151C1169.1 881.744 1154.57 885.016 1152.54 886.703C1151.2 887.818 1149.35 888.596 1148.43 888.431C1143.82 887.605 1137.87 888.804 1138.83 890.363C1139.43 891.337 1141.68 891.674 1143.83 891.112C1147.03 890.275 1147.73 891.054 1147.73 895.441C1147.73 899.975 1148.18 900.42 1150.66 898.359C1154.06 895.542 1154.68 898.45 1151.38 901.743C1149.73 903.391 1152.1 906.856 1160.65 915.318C1171.4 925.963 1172.17 926.382 1172.8 921.968C1173.18 919.377 1174.78 915.955 1176.37 914.363C1178.93 911.807 1179.11 912.286 1177.95 918.466C1177.02 923.434 1177.55 926.757 1179.77 929.924L1182.89 934.385V929.067C1182.89 923.153 1186.01 921.84 1187.4 927.168C1187.89 929.048 1188.5 926.191 1188.74 920.82L1189.18 911.055L1191.59 920.857C1195.27 935.897 1197.89 939.85 1202.5 937.378C1205.54 935.751 1206.33 935.958 1206.33 938.391C1206.33 940.074 1207.64 941.955 1209.25 942.571C1210.85 943.187 1211.82 944.258 1211.39 944.951C1210.96 945.644 1213.12 946.392 1216.19 946.613C1220.64 946.934 1221.55 946.343 1220.72 943.684C1219.78 940.683 1219.94 940.657 1222.28 943.428C1223.71 945.12 1227.08 947.895 1229.77 949.594C1235.12 952.983 1264.33 959.505 1266.93 957.894C1267.83 957.342 1269.07 957.711 1269.69 958.716C1270.34 959.774 1273.37 959.269 1276.89 957.515C1280.22 955.85 1286.41 954.397 1290.63 954.286ZM1170.68 911.87C1172.03 910.455 1173.14 907.495 1173.15 905.293C1173.17 903.091 1174 899.998 1175 898.421C1176.28 896.39 1176.7 897.623 1176.43 902.639C1176.18 907.359 1174.75 910.514 1172.15 912.085C1168.93 914.029 1168.67 913.991 1170.68 911.87ZM1155.55 904.697C1155.55 903.623 1156.87 901.65 1158.48 900.313C1160.11 898.956 1161.41 898.745 1161.41 899.834C1161.41 900.908 1160.09 902.881 1158.48 904.219C1156.84 905.575 1155.55 905.787 1155.55 904.697ZM1289.41 958.114C1292.93 955.547 1292.82 955.435 1287.83 956.389C1284.9 956.95 1282.5 958.185 1282.5 959.134C1282.5 961.639 1285.12 961.253 1289.41 958.114ZM1364.05 956.654C1365.47 955.23 1365.67 953.216 1364.58 951.178C1363.59 949.328 1363.58 946.773 1364.56 945.184C1365.99 942.881 1366.49 942.981 1367.56 945.777C1368.27 947.627 1370 949.141 1371.39 949.141C1373.38 949.141 1373.45 948.128 1371.74 944.493C1369.86 940.524 1368.89 940.142 1365.08 941.877C1362.63 942.994 1360.63 944.536 1360.63 945.304C1360.63 946.071 1360.08 949.446 1359.4 952.803C1358.15 959.063 1360.06 960.644 1364.05 956.654ZM1059.46 946.049C1059.78 943.99 1060.87 940.547 1061.88 938.398C1064.81 932.177 1069.62 917.606 1069.53 915.204C1069.49 913.996 1068.14 915.425 1066.54 918.379C1063.43 924.113 1061.18 925.685 1063.04 920.82C1065.44 914.577 1059.49 918.271 1056.8 924.692C1053.63 932.276 1045.12 936.123 1042.09 931.339C1040.67 929.096 1040.37 929.138 1040.34 931.588C1040.31 934.358 1044.62 937.512 1052.5 940.489C1055.01 941.437 1055.58 943.062 1054.67 946.689C1053.74 950.369 1054.12 951.376 1056.15 950.698C1057.64 950.201 1059.13 948.109 1059.46 946.049ZM1090.34 943.281C1089.62 938.77 1089.88 935.469 1090.95 935.469C1093.72 935.469 1095.89 918.001 1093.43 915.536C1091.98 914.091 1090.99 915.738 1090.1 921.054C1088.27 932 1087.46 933.914 1085.21 932.525C1084.11 931.844 1081.99 934.196 1080.49 937.751C1077.89 943.943 1077.99 944.359 1082.97 947.641C1090.57 952.654 1091.73 951.966 1090.34 943.281ZM1073.82 927.656C1077.36 920.674 1080.36 913.542 1080.51 911.809C1080.65 910.075 1081.46 907.438 1082.29 905.949C1083.13 904.46 1082.05 905 1079.89 907.148C1076.69 910.335 1071.98 920.728 1063.99 942.282C1061.74 948.354 1068.27 938.651 1073.82 927.656ZM1339.14 939.375C1339.14 938.301 1338.26 937.422 1337.19 937.422C1336.11 937.422 1335.23 938.301 1335.23 939.375C1335.23 940.449 1336.11 941.328 1337.19 941.328C1338.26 941.328 1339.14 940.449 1339.14 939.375ZM1188.75 935.469C1188.75 934.395 1187.82 933.516 1186.68 933.516C1185.54 933.516 1185.16 934.395 1185.82 935.469C1186.48 936.543 1187.42 937.422 1187.89 937.422C1188.36 937.422 1188.75 936.543 1188.75 935.469ZM1046.11 916.896C1046.14 915.811 1044.41 913.826 1042.27 912.484C1038.76 910.297 1038.36 910.534 1038.36 914.785C1038.36 917.391 1038.9 920.94 1039.57 922.671C1040.65 925.498 1041.04 925.465 1043.41 922.343C1044.86 920.431 1046.08 917.98 1046.11 916.896ZM1415.55 886.195C1415.59 880.532 1414.69 873.701 1413.54 871.016C1411.79 866.961 1411.51 868.287 1411.86 878.828C1412.09 885.811 1411.56 892.664 1410.69 894.058C1409.82 895.453 1409.68 898.089 1410.39 899.918C1411.59 903.036 1411.79 903.032 1413.56 899.867C1414.61 898.011 1415.5 891.858 1415.55 886.195ZM1034.45 866.248C1034.45 865.774 1033.57 864.844 1032.5 864.18C1031.43 863.516 1030.55 863.903 1030.55 865.041C1030.55 866.179 1031.43 867.109 1032.5 867.109C1033.57 867.109 1034.45 866.722 1034.45 866.248ZM1331.33 841.719C1331.33 840.645 1329.35 839.827 1326.93 839.903C1322.74 840.034 1322.72 840.117 1326.45 841.719C1328.59 842.642 1330.57 843.459 1330.84 843.535C1331.11 843.61 1331.33 842.793 1331.33 841.719ZM1314.73 839.766C1315.39 838.691 1315 837.813 1313.87 837.813C1312.73 837.813 1311.8 838.691 1311.8 839.766C1311.8 840.84 1312.18 841.719 1312.66 841.719C1313.13 841.719 1314.06 840.84 1314.73 839.766ZM1326.5 833.992C1325.86 832.964 1324.05 832.619 1322.48 833.224C1318.44 834.773 1318.92 835.859 1323.63 835.859C1325.84 835.859 1327.13 835.019 1326.5 833.992ZM1169.22 812.191C1169.22 811.117 1168.34 810.781 1167.27 811.445C1166.19 812.109 1165.31 813.531 1165.31 814.606C1165.31 815.68 1166.19 816.015 1167.27 815.352C1168.34 814.688 1169.22 813.266 1169.22 812.191ZM1407.5 792.891C1407.5 791.816 1406.57 790.938 1405.43 790.938C1404.29 790.938 1403.91 791.816 1404.57 792.891C1405.23 793.965 1406.17 794.844 1406.64 794.844C1407.11 794.844 1407.5 793.965 1407.5 792.891ZM749.03 695.109C755.583 693.704 760.924 690.891 765.524 686.424C771.266 680.847 772.537 678.002 773.678 668.174C774.774 658.73 774.291 654.863 771.122 647.698C765.716 635.478 753.624 626.875 741.851 626.875C730.122 626.875 717.717 634.157 713.188 643.702C708.242 654.124 708.202 673.315 713.11 680.671C715.229 683.847 716.767 687.105 716.528 687.91C716.289 688.716 717.339 689.375 718.861 689.375C720.382 689.375 721.944 690.325 722.331 691.486C722.718 692.647 726.087 694.314 729.818 695.192C739.234 697.407 738.297 697.411 749.03 695.109ZM1476.19 524.033C1480.6 520.042 1480.67 517.106 1476.54 509.102C1472.27 500.854 1468.38 498.106 1460.86 498.031C1454.43 497.967 1448.1 503.731 1445.46 512.046C1443.76 517.378 1447.39 519.387 1458.77 519.423C1466.73 519.449 1468.05 520.006 1468.05 523.359C1468.05 528.109 1471.39 528.385 1476.19 524.033ZM980.254 409.158C979.551 405.478 980.851 403.043 985.727 398.904C989.244 395.919 993.941 393.001 996.164 392.42C1000.99 391.159 1011.29 375.233 1011.7 368.407C1011.86 365.751 1012.8 364.077 1013.79 364.687C1014.78 365.298 1015.02 364.335 1014.34 362.547C1013.65 360.759 1013.87 359.297 1014.82 359.297C1016.74 359.297 1016.16 348.526 1013.96 343.184C1013.14 341.192 1013.41 339.766 1014.62 339.766C1017.99 339.766 1007.42 321.342 999.05 312.633C994.792 308.202 985.899 301.846 979.288 298.509C967.735 292.677 966.622 292.493 950.568 293.757C941.383 294.48 931.45 295.146 928.496 295.238C925.245 295.339 923.125 296.495 923.125 298.169C923.125 299.69 922.359 300.46 921.423 299.882C919.334 298.591 908.411 318.886 906.614 327.395C905.896 330.797 904.044 334.065 902.498 334.658C900.952 335.251 899.701 337.302 899.717 339.216C899.743 342.177 900.03 342.259 901.641 339.766C903.278 337.232 903.538 337.277 903.564 340.094C903.579 341.886 903.001 344.898 902.276 346.787C901.051 349.979 900.842 349.956 899.328 346.459C898.261 343.994 897.93 346.096 898.368 352.552C899.188 364.616 907.503 383.407 915.907 392.183C922.891 399.477 934.654 406.172 940.486 406.172C942.6 406.172 945.597 407.438 947.144 408.986C948.692 410.533 951.623 411.364 953.659 410.831C955.695 410.299 959.545 410.735 962.215 411.8C964.886 412.865 970.244 413.792 974.124 413.861C980.596 413.974 981.101 413.587 980.254 409.158ZM967.559 408.785C968.901 408.243 971.099 408.243 972.441 408.785C973.784 409.326 972.686 409.77 970 409.77C967.314 409.77 966.216 409.326 967.559 408.785ZM947.539 400.436C943.242 399.752 935.707 397.244 930.793 394.862C923.391 391.274 920.461 388.087 913.703 376.276C904.419 360.049 903.339 350.876 908.812 334.742C914.619 317.626 922.024 307.759 933.365 302.02C949.644 293.784 964.576 295.371 980.742 307.056C990.316 313.975 1002.84 328.833 1004.42 335.159C1005.99 341.385 1003.57 359.894 1000.12 368.163C996.651 376.455 996.663 377.014 1000.27 375.628C1001.88 375.01 1003.2 373.387 1003.2 372.022C1003.2 370.657 1004.52 368.447 1006.13 367.109C1010.07 363.841 1009.82 365.776 1005.12 375C1002.25 380.614 999.943 382.734 996.693 382.734C994.23 382.734 989.704 385.355 986.635 388.559C977.956 397.618 961.415 402.643 947.539 400.436ZM742.712 405.145C741.996 403.279 742.692 402.842 745.002 403.707C747.758 404.74 747.915 404.45 745.925 401.999C744.09 399.737 744.067 398.511 745.828 396.75C748.666 393.912 746.405 393.773 741.356 396.475C739.19 397.634 737.578 400.55 737.578 403.311C737.578 405.959 736.919 408.021 736.113 407.894C732.322 407.295 731.018 408.359 733.567 409.972C737.262 412.309 744.08 408.711 742.712 405.145ZM986.588 404.241C987.272 403.134 986.488 402.807 984.75 403.474C981.366 404.772 980.747 406.172 983.557 406.172C984.567 406.172 985.931 405.303 986.588 404.241ZM757.109 388.803C757.109 386.769 755.719 384.572 754.02 383.92C748.238 381.701 747.249 382.727 750.453 387.617C754.256 393.421 757.109 393.93 757.109 388.803ZM768.828 384.687C768.828 383.613 767.949 382.734 766.875 382.734C765.801 382.734 764.922 383.613 764.922 384.687C764.922 385.762 765.801 386.641 766.875 386.641C767.949 386.641 768.828 385.762 768.828 384.687ZM786.406 370.637C786.406 366.346 799.814 358.067 816.031 352.345C820.18 350.881 828.765 346.642 835.108 342.924C841.451 339.207 852.059 334.777 858.681 333.081C865.303 331.384 876.58 327.483 883.74 324.411C890.9 321.339 898.316 318.284 900.22 317.621C903.784 316.381 906.821 311.092 905.009 309.28C904.448 308.719 898.846 310.845 892.561 314.005C886.276 317.164 878.057 320.416 874.297 321.23C870.537 322.045 863.066 324.692 857.695 327.114C852.324 329.536 844.414 332.583 840.117 333.886C835.82 335.188 823.334 340.488 812.37 345.662C801.406 350.836 790.86 354.665 788.933 354.171C783.725 352.836 775.102 369.517 778.881 373.617C781.575 376.539 786.406 374.625 786.406 370.637ZM1125.27 352.544C1156.43 351.926 1194.66 350.533 1210.23 349.448C1294.93 343.548 1322.54 341.393 1323.31 340.622C1324.93 338.998 1302.92 339.821 1270.78 342.585C1212.63 347.586 1135.04 350.919 1060.82 351.603C1037.19 351.82 1020.93 352.568 1024.69 353.265C1028.45 353.961 1039.87 354.337 1050.08 354.099C1060.28 353.861 1094.12 353.161 1125.27 352.544ZM1321.56 325.308C1321.56 324.876 1318.93 323.604 1315.7 322.48C1308.92 320.116 1307.7 321.451 1314.24 324.08C1319.19 326.068 1321.56 326.467 1321.56 325.308ZM1300.96 316.548C1299.94 315.594 1296.9 314.239 1294.22 313.536L1289.34 312.259L1294.22 315.201C1299.66 318.48 1303.94 319.335 1300.96 316.548ZM1281.41 307.601C1279.32 306.024 1276.3 304.737 1274.69 304.741C1272.99 304.745 1273.81 305.92 1276.64 307.539C1283.06 311.209 1286.23 311.25 1281.41 307.601ZM1268.83 303.672C1268.83 301.82 1252.86 294.635 1250.62 295.477C1249.35 295.95 1252.28 298.137 1257.11 300.336C1266.3 304.516 1268.83 305.236 1268.83 303.672ZM1245.39 294.844C1243.78 293.802 1241.58 292.95 1240.51 292.95C1239.43 292.95 1239.87 293.802 1241.48 294.844C1243.1 295.885 1245.29 296.737 1246.37 296.737C1247.44 296.737 1247 295.885 1245.39 294.844ZM997.859 293.469C995.457 293.005 991.062 292.993 988.093 293.442C985.124 293.891 987.09 294.271 992.461 294.285C997.832 294.301 1000.26 293.932 997.859 293.469ZM1228.79 288.984C1228.13 287.91 1226.1 287.093 1224.28 287.169C1221.59 287.28 1221.7 287.616 1224.88 288.984C1230.11 291.23 1230.18 291.23 1228.79 288.984ZM1273.15 1531.05C1261.84 1528.82 1230.8 1513.92 1214.63 1502.95C1200.82 1493.58 1183.63 1479.56 1192.81 1485.15C1195.58 1486.84 1198.44 1487.63 1199.16 1486.91C1199.88 1486.19 1200.47 1486.96 1200.47 1488.62C1200.47 1493.76 1233.52 1513.5 1259.6 1523.95C1272.82 1529.24 1283.77 1530.91 1281.54 1527.29C1280.79 1526.08 1281.91 1525.94 1284.56 1526.92C1286.88 1527.78 1291.3 1528.11 1294.38 1527.66C1299.36 1526.93 1299.75 1526.39 1297.83 1522.81C1296.12 1519.61 1296.33 1518.31 1298.89 1516.44C1300.65 1515.15 1301.59 1512.75 1300.96 1511.12C1298.98 1505.96 1334.26 1477.74 1359.96 1463.9C1377.3 1454.57 1381.52 1448.18 1389.69 1418.87C1390.89 1414.57 1392.16 1407.28 1392.51 1402.67C1393.07 1395.37 1394 1393.87 1399.81 1390.96C1404.64 1388.53 1407.33 1385.28 1409.59 1379.09C1413.4 1368.68 1418.06 1365.46 1422.93 1369.86C1427.56 1374.05 1432.32 1373.78 1434.78 1369.18C1437.51 1364.08 1435.37 1363.12 1421.81 1363.38C1409.81 1363.6 1406.11 1363.08 1402.13 1360.59C1400.79 1359.75 1399.69 1359.88 1399.69 1360.87C1399.69 1363.05 1388.42 1361.17 1376.25 1356.96C1362.9 1352.34 1348.85 1349.33 1346.73 1350.65C1345.68 1351.29 1343.49 1350.71 1341.85 1349.34C1339.9 1347.73 1332.4 1346.87 1320.23 1346.87C1304.33 1346.87 1302.11 1346.49 1305.12 1344.29C1307.05 1342.88 1307.7 1341.72 1306.55 1341.72C1305.4 1341.72 1300.83 1345.23 1296.41 1349.53C1291.98 1353.83 1288.04 1357.34 1287.65 1357.34C1287.26 1357.34 1287.37 1355.15 1287.88 1352.46C1288.39 1349.78 1289.59 1347.58 1290.54 1347.58C1291.49 1347.58 1292.27 1345.87 1292.27 1343.79C1292.27 1341.7 1293.28 1339.37 1294.52 1338.6C1295.85 1337.78 1296.25 1338.06 1295.49 1339.28C1294.68 1340.6 1295.7 1340.96 1298.29 1340.29C1301.38 1339.48 1301.74 1338.83 1299.76 1337.57C1295.57 1334.92 1301.43 1335.4 1306.55 1338.13C1310.47 1340.22 1310.59 1340.13 1308.02 1337.01C1305.38 1333.81 1306.96 1333.66 1335.9 1334.25L1366.59 1334.88L1365.39 1329.47C1364.42 1325.05 1365.39 1322.95 1370.72 1317.95C1380.84 1308.45 1388.55 1306.15 1411.98 1305.63C1430.94 1305.21 1433.47 1304.73 1437.12 1300.81C1440.3 1297.39 1442.53 1296.7 1447.43 1297.62C1452.7 1298.61 1454.09 1298.04 1456.24 1294.03C1457.78 1291.16 1458.26 1287.08 1457.44 1283.75C1456.7 1280.72 1456.04 1275.43 1455.98 1272C1455.87 1266.26 1455.29 1265.71 1448.77 1265.16L1441.68 1264.57L1442.25 1255.78C1442.94 1245.02 1449.09 1231.76 1455.86 1226.44C1459.71 1223.4 1460.36 1221.93 1458.62 1220.18C1454.66 1216.23 1456.08 1213.04 1463.65 1208.87L1470.98 1204.84L1464.14 1205.86C1460.38 1206.43 1448.77 1207.82 1438.34 1208.97C1421.75 1210.8 1418.77 1210.66 1414.49 1207.85C1398.13 1197.13 1412.36 1185.25 1442.27 1184.69C1451.12 1184.52 1452.49 1184 1451.73 1181.07C1450.48 1176.32 1453.83 1176.77 1455.35 1181.56C1456.92 1186.5 1464.14 1186.83 1464.14 1181.96C1464.14 1179.31 1465.89 1178.34 1471.3 1177.97C1475.23 1177.71 1479.3 1176.97 1480.34 1176.33C1481.38 1175.68 1481.82 1176.36 1481.33 1177.83C1480.84 1179.3 1477.63 1180.62 1474.2 1180.76C1470.76 1180.9 1467.33 1181.63 1466.57 1182.39C1465.81 1183.15 1470.75 1183.4 1477.56 1182.95C1485.24 1182.43 1490.59 1181.09 1491.65 1179.4C1492.71 1177.73 1493.39 1177.56 1493.41 1178.95C1493.42 1180.2 1494.54 1180.97 1495.88 1180.66C1508.68 1177.75 1511.02 1176.92 1511.02 1175.25C1511.02 1174.2 1509.62 1173.87 1507.9 1174.53C1506.19 1175.18 1502.68 1176.25 1500.1 1176.9C1496 1177.93 1495.45 1177.45 1495.81 1173.12C1496.03 1170.4 1496.82 1168.54 1497.55 1169C1498.66 1169.68 1501.25 1165.45 1501.25 1162.97C1501.25 1161.65 1419.92 1175.04 1417 1176.85C1416.07 1177.42 1415.31 1176.56 1415.31 1174.93C1415.31 1173.05 1417.98 1171.49 1422.64 1170.66C1426.67 1169.93 1437.43 1167.64 1446.56 1165.55C1455.69 1163.47 1467.56 1160.88 1472.93 1159.81C1488.94 1156.61 1502.75 1152.24 1504.76 1149.73C1505.79 1148.44 1507.24 1141.23 1507.99 1133.71C1508.73 1126.19 1510.99 1114.33 1513.01 1107.34C1515.03 1100.36 1517.2 1087.62 1517.82 1079.02C1518.45 1070.43 1520.42 1049.09 1522.22 1031.6C1525 1004.44 1525.91 999.984 1528.5 1001.03C1530.16 1001.71 1535.92 1002.64 1541.29 1003.09C1546.66 1003.55 1552.37 1004.07 1553.98 1004.24C1560.45 1004.93 1573.53 1001.19 1576.63 997.77C1581.3 992.605 1577.92 989.339 1562.67 984.263C1548.94 979.692 1546.17 980.208 1546.17 987.342C1546.17 989.964 1544.41 993.867 1542.27 996.016C1537.31 1000.97 1532.63 1001.27 1537.08 996.35C1538.86 994.386 1540.31 990.481 1540.31 987.673C1540.31 980.469 1530.45 954.706 1528.01 955.52C1524.13 956.814 1521.26 969.97 1518.95 997.067C1517.67 1012.07 1516.32 1026.97 1515.94 1030.2C1515.57 1033.42 1514.65 1046.16 1513.89 1058.52C1513.13 1070.87 1510.42 1091.83 1507.86 1105.09C1505.3 1118.35 1503.19 1131.53 1503.17 1134.38C1503.13 1142.38 1501.18 1143.79 1488.55 1144.97C1482.11 1145.57 1472.64 1147.95 1467.51 1150.25C1457.55 1154.73 1437.21 1159.93 1423.59 1161.48C1415.71 1162.38 1415.16 1162.86 1413.2 1170.53C1410.42 1181.47 1404.52 1188.67 1400.84 1185.62C1398.75 1183.88 1397.92 1183.94 1397.27 1185.88C1396.29 1188.79 1379.48 1175.87 1376.14 1169.64C1375.01 1167.52 1374.1 1161.21 1374.13 1155.61C1374.21 1137.82 1372.66 1109.03 1371.45 1105.88C1370.43 1103.23 1369.95 1103.3 1367.69 1106.38C1361.36 1115.04 1351.27 1099.29 1349.48 1077.97C1348.03 1060.73 1350.42 1055.36 1363.2 1047.06C1368.85 1043.39 1377.2 1035.22 1382.11 1028.57C1395.1 1010.97 1403.57 1005.76 1421.32 1004.47C1429.29 1003.89 1441.97 1002.85 1449.49 1002.16L1463.16 1000.9L1463.78 991.133C1464.12 985.762 1462.49 966.152 1460.16 947.556C1457.83 928.959 1456.23 913.542 1456.61 913.295C1456.99 913.047 1463.64 910.864 1471.39 908.442C1486.41 903.75 1493.44 897.67 1493.44 889.376C1493.44 883.373 1488.85 881.181 1476.1 881.082C1468.27 881.022 1464.52 879.98 1461.33 876.985C1458.98 874.776 1456.48 872.969 1455.78 872.969C1453 872.969 1457.39 879.861 1464.66 886.914C1472.47 894.498 1473.33 898.817 1467.25 899.996C1465.14 900.405 1460.38 896.883 1454.71 890.718C1449.69 885.253 1444.44 880.781 1443.05 880.781C1441.66 880.781 1438.54 882.762 1436.12 885.183L1431.72 889.585L1431.29 878.62C1430.98 870.778 1431.7 866.953 1433.83 865.19C1435.46 863.834 1436.8 861.023 1436.8 858.942C1436.8 856.862 1437.68 855.703 1438.75 856.367C1439.82 857.031 1440.7 855.713 1440.7 853.438C1440.7 851.162 1439.82 849.844 1438.75 850.508C1437.53 851.265 1436.8 847.032 1436.8 839.157C1436.8 805.174 1426.08 734.21 1419.55 724.942C1415.38 719.017 1405.35 696.43 1401.6 684.492C1400.25 680.195 1395.74 669.874 1391.59 661.555C1379.18 636.713 1374.3 619.188 1374.3 599.442C1374.3 589.999 1374.77 581.036 1375.35 579.526C1376.1 577.568 1379.05 576.961 1385.61 577.415C1397.37 578.228 1459.81 577.923 1473.91 576.983C1479.81 576.589 1500.76 576.008 1520.46 575.692C1555.58 575.128 1556.34 575.203 1559.84 579.512C1564.1 584.774 1566 585.174 1564.46 580.488C1562.77 575.353 1571.73 589.762 1574.87 597.24C1576.37 600.814 1579.69 613.558 1582.24 625.56C1588.45 654.76 1592.67 671.351 1594.98 675.662C1596.03 677.621 1597.44 683.924 1598.13 689.67C1598.81 695.416 1600.16 701.632 1601.13 703.483C1603.41 707.841 1607.21 726.217 1606.97 731.759C1606.86 734.122 1607.56 736.541 1608.52 737.132C1609.48 737.724 1609.8 736.449 1609.24 734.3C1608.67 732.113 1609.18 730.391 1610.4 730.391C1611.6 730.391 1612.58 731.855 1612.58 733.646C1612.58 735.436 1613.1 736.379 1613.74 735.74C1615.21 734.274 1609.45 689.173 1605.61 672.01C1604.02 664.91 1601.51 641.812 1600.04 620.681C1597.57 585.153 1596.96 581.52 1592.01 572.426C1589.07 567.016 1585.02 560.832 1583.02 558.682C1581.01 556.532 1579.38 553.96 1579.38 552.966C1579.38 551.972 1577.68 550.717 1575.62 550.176C1573.55 549.636 1567.62 543.258 1562.43 536.004C1557.25 528.75 1548.17 516.836 1542.27 509.53C1520.2 482.24 1498.23 454.527 1495.41 450.437C1492.63 446.394 1492.67 446.338 1496.34 449.141C1503.24 454.41 1522.35 478.024 1536.64 498.945C1541.04 505.391 1547.44 513.301 1550.86 516.523C1554.28 519.746 1563.12 529.854 1570.52 538.984C1577.91 548.115 1587.29 559.262 1591.35 563.755C1603.53 577.213 1604.65 581.927 1606.71 628.678C1607.88 655.037 1610.07 678.867 1612.56 692.305C1614.75 704.121 1617.08 717.744 1617.74 722.578C1618.39 727.412 1622.8 743.032 1627.54 757.289C1633.4 774.954 1636.52 788.139 1637.34 798.683C1638.46 813.292 1638.19 814.812 1632.5 825.945C1629.18 832.429 1625.54 842.729 1624.41 848.834C1623.28 854.938 1621.79 860.449 1621.1 861.08C1619.95 862.135 1620.37 858.243 1623.7 837.025C1624.56 831.529 1624.26 829.79 1622.64 830.793C1621.4 831.558 1620.39 833.89 1620.39 835.975C1620.39 838.06 1619.07 839.766 1617.46 839.766C1615.85 839.766 1614.53 840.696 1614.53 841.834C1614.53 842.972 1615.4 843.363 1616.47 842.703C1617.6 842.009 1618.24 843.603 1618 846.494C1617.76 849.415 1616.39 851.484 1614.69 851.484C1612.55 851.484 1612.37 852.054 1613.99 853.681C1615.62 855.307 1615.53 857.461 1613.64 861.981C1609.25 872.513 1604.73 900.51 1606.8 904.377C1607.83 906.297 1608.6 909.464 1608.5 911.415C1608.39 913.882 1607.88 913.475 1606.84 910.078C1606.02 907.393 1602.62 899.808 1599.28 893.223C1595.95 886.639 1593.66 880.82 1594.19 880.292C1595.38 879.096 1590.84 868.542 1588.38 866.802C1584.29 863.911 1581.68 867.552 1582.26 875.337C1583.02 885.544 1578.88 895.511 1570.06 904.657C1565.05 909.859 1561.9 911.645 1559.01 910.925C1555.5 910.052 1554.51 911.466 1551.54 921.633C1546.97 937.292 1547.2 940.764 1553.39 949.699C1558.1 956.482 1558.92 956.95 1561.05 954.034C1563.22 951.068 1563.76 951.239 1566.79 955.873C1568.63 958.683 1569.58 961.54 1568.9 962.222C1568.21 962.905 1567.66 962.498 1567.66 961.318C1567.66 958.977 1560.2 959.203 1556.21 961.666C1554.84 962.512 1553.12 962.556 1552.39 961.764C1551.66 960.972 1552.17 959.925 1553.54 959.437C1555.23 958.834 1554.14 956.395 1550.12 951.824C1546.88 948.125 1544.22 944.25 1544.22 943.213C1544.22 940.361 1539.15 940.957 1536.52 944.118C1534.72 946.287 1534.84 948.133 1537.06 952.423C1541.18 960.389 1546.21 964.271 1553.95 965.469C1557.69 966.048 1561.06 967.438 1561.43 968.558C1561.84 969.787 1563.4 969.946 1565.37 968.96C1571.83 965.723 1580.1 967.438 1582.82 972.578C1589.23 984.728 1580.28 1004.03 1566.89 1006.89C1563.55 1007.6 1559.9 1008.92 1558.78 1009.82C1556.73 1011.46 1547.06 1010.85 1540.11 1008.65C1538.05 1007.99 1536.41 1008.4 1536.41 1009.56C1536.41 1010.7 1535.09 1011.64 1533.48 1011.64C1531.06 1011.64 1530.55 1015.17 1530.55 1031.65C1530.55 1079.61 1536.53 1145.65 1540.6 1142.5C1541.29 1141.96 1543.8 1143.28 1546.17 1145.43C1548.55 1147.58 1550.84 1149.12 1551.26 1148.85C1551.68 1148.58 1553.8 1148.36 1555.96 1148.36C1559.75 1148.36 1559.78 1148.64 1556.86 1155.68C1551.75 1168.01 1541.44 1182.1 1526.37 1197.33C1509.87 1214.01 1499.84 1221.91 1491.44 1224.84C1483.4 1227.64 1480.91 1232.78 1483.63 1241C1484.81 1244.58 1485.96 1254.2 1486.19 1262.37C1486.42 1270.54 1487.2 1277.24 1487.93 1277.25C1488.67 1277.26 1489.88 1279.24 1490.63 1281.66C1491.39 1284.08 1494.96 1290.55 1498.59 1296.04C1505.14 1305.96 1505.16 1306.07 1502.23 1314.37C1499.03 1323.44 1492.85 1330 1487.51 1330C1485.65 1330 1483.68 1331.7 1483.14 1333.78C1482.43 1336.51 1481.01 1337.26 1478.03 1336.48C1472.96 1335.16 1472.78 1337.72 1477.07 1350.31C1482.84 1367.25 1480.52 1373.36 1461.34 1391.78C1452.14 1400.62 1444.61 1408.76 1444.61 1409.87C1444.61 1412.26 1437.02 1416.89 1433.06 1416.91C1431.26 1416.93 1429.45 1421.02 1427.87 1428.64C1426.53 1435.08 1423.25 1446.5 1420.56 1454.02C1417.88 1461.54 1415.3 1472.87 1414.83 1479.2C1413.99 1490.36 1413.61 1491.04 1402.09 1501.91C1393.96 1509.58 1388 1513.52 1383.18 1514.42C1378.76 1515.25 1376.64 1516.55 1377.47 1517.9C1378.21 1519.09 1377.98 1519.55 1376.98 1518.93C1375.98 1518.31 1366.95 1519.93 1356.93 1522.53C1338.22 1527.39 1298.9 1533.29 1287.77 1532.91C1284.33 1532.79 1277.75 1531.95 1273.15 1531.05ZM1428.86 1412.03C1428.87 1405.55 1426.01 1410.4 1424.25 1419.84C1422.99 1426.63 1423 1426.65 1425.91 1421.8C1427.53 1419.11 1428.85 1414.72 1428.86 1412.03ZM1424.42 1397.87C1423.88 1396.53 1423.43 1397.63 1423.43 1400.31C1423.43 1403 1423.88 1404.1 1424.42 1402.75C1424.96 1401.41 1424.96 1399.21 1424.42 1397.87ZM1418.57 1393.48C1418.57 1391.87 1417.84 1390.55 1416.94 1390.55C1414.99 1390.55 1414.79 1393.28 1416.61 1395.1C1418.43 1396.91 1418.57 1396.8 1418.57 1393.48ZM1319.61 1338.58C1319.61 1338.16 1317.8 1337.81 1315.59 1337.81C1313.38 1337.81 1312.09 1338.65 1312.72 1339.68C1313.76 1341.37 1319.61 1340.43 1319.61 1338.58ZM1398.26 1326.77C1396.94 1326.23 1394.3 1326.2 1392.4 1326.69C1390.5 1327.19 1391.58 1327.63 1394.8 1327.67C1398.03 1327.71 1399.58 1327.3 1398.26 1326.77ZM1455.08 1315.85C1457.14 1312.82 1458.16 1309.07 1457.45 1307.21C1455.27 1301.53 1450.07 1308.89 1449.39 1318.6C1449.07 1323.26 1449.4 1325.75 1450.13 1324.14C1450.85 1322.53 1453.08 1318.8 1455.08 1315.85ZM1398.83 1321.33C1402.57 1318.56 1402.57 1318.49 1398.71 1315.53C1394.63 1312.41 1384.92 1311.36 1383.43 1313.89C1382.96 1314.69 1383.32 1317.33 1384.23 1319.75C1386.16 1324.86 1393.05 1325.61 1398.83 1321.33ZM1447.9 1304.24C1447.27 1302.69 1446.81 1303.15 1446.72 1305.42C1446.63 1307.48 1447.09 1308.64 1447.74 1307.99C1448.39 1307.34 1448.46 1305.65 1447.9 1304.24ZM1468.05 1280.31C1468.05 1279.84 1467.17 1278.91 1466.09 1278.24C1465.02 1277.58 1464.14 1277.97 1464.14 1279.1C1464.14 1280.24 1465.02 1281.17 1466.09 1281.17C1467.17 1281.17 1468.05 1280.78 1468.05 1280.31ZM1485.63 1271.41C1485.63 1270.33 1484.31 1269.45 1482.7 1269.45C1481.08 1269.45 1479.77 1270.33 1479.77 1271.41C1479.77 1272.48 1481.08 1273.36 1482.7 1273.36C1484.31 1273.36 1485.63 1272.48 1485.63 1271.41ZM1444.08 1188.19C1443.43 1187.55 1441.75 1187.48 1440.34 1188.04C1438.78 1188.66 1439.24 1189.13 1441.52 1189.22C1443.58 1189.31 1444.73 1188.84 1444.08 1188.19ZM1509.9 1185.25C1508.53 1183.03 1501.8 1182.99 1500.44 1185.2C1498.79 1187.87 1500.95 1188.89 1506.16 1187.9C1508.8 1187.39 1510.49 1186.2 1509.9 1185.25ZM1506.95 1170.56C1509.63 1168.21 1503.27 1170.39 1500.16 1172.88C1496.58 1175.75 1496.65 1175.79 1501.25 1173.59C1503.94 1172.31 1506.5 1170.95 1506.95 1170.56ZM1372.34 1066.33C1372.34 1065.25 1371.96 1064.38 1371.48 1064.38C1371.01 1064.38 1370.08 1065.25 1369.41 1066.33C1368.75 1067.4 1369.14 1068.28 1370.28 1068.28C1371.41 1068.28 1372.34 1067.4 1372.34 1066.33ZM1602.81 879.92C1602.81 879.446 1601.93 878.515 1600.86 877.852C1599.79 877.188 1598.91 877.575 1598.91 878.713C1598.91 879.85 1599.79 880.781 1600.86 880.781C1601.93 880.781 1602.81 880.394 1602.81 879.92ZM1461.09 864.963C1460.32 863.709 1458.89 863.843 1457.09 865.338C1454.87 867.18 1454.48 867.098 1455.24 864.944C1456.55 861.215 1453.73 848.985 1451.4 848.244C1447.91 847.141 1444.68 850.632 1443.44 856.846C1442.35 862.281 1442.95 863.439 1448.63 866.892C1453.41 869.802 1455.97 870.301 1458.67 868.854C1460.67 867.787 1461.75 866.036 1461.09 864.963ZM1606.69 845.021C1606.71 844.152 1605.84 843.985 1604.77 844.648C1603.69 845.312 1602.83 847.342 1602.84 849.158C1602.87 852.004 1603.13 852.056 1604.77 849.531C1605.81 847.92 1606.67 845.891 1606.69 845.021ZM1455.21 837.591C1454.63 836.639 1452.77 835.859 1451.09 835.859C1448.76 835.859 1448.55 836.478 1450.21 838.481C1451.41 839.922 1451.74 841.871 1450.94 842.811C1450.14 843.751 1451.02 843.35 1452.89 841.921C1454.76 840.492 1455.8 838.544 1455.21 837.591ZM1630.07 810.957C1630.12 807.466 1629.34 804.609 1628.33 804.609C1627.33 804.609 1626.58 807.026 1626.65 809.98C1626.73 812.935 1626.25 818.428 1625.57 822.188L1624.35 829.023L1627.16 823.164C1628.71 819.941 1630.02 814.448 1630.07 810.957ZM1624.27 817.793C1624.24 814.239 1623.87 813.959 1622.34 816.328C1619.9 820.115 1619.9 822.188 1622.34 822.188C1623.42 822.188 1624.28 820.21 1624.27 817.793ZM1633.08 783.635C1631.4 767.06 1628.25 767.378 1628.46 784.102C1628.56 792.695 1629.16 800.57 1629.77 801.601C1631.71 804.835 1633.97 792.503 1633.08 783.635ZM1619.82 772.894C1619.35 770.464 1618.95 771.992 1618.93 776.289C1618.91 780.586 1619.29 782.574 1619.78 780.706C1620.27 778.839 1620.29 775.323 1619.82 772.894ZM1624.17 756.281C1622.37 747.7 1621.47 745.964 1620.37 748.945C1618.67 753.552 1620.07 764.897 1623.02 770.43C1624.89 773.942 1625.17 773.992 1625.82 770.93C1626.21 769.056 1625.47 762.465 1624.17 756.281ZM1618.44 746.016C1618.44 742.793 1617.54 740.156 1616.45 740.156C1615.32 740.156 1614.92 742.489 1615.52 745.527C1616.54 750.739 1616.51 750.759 1614.53 746.22C1612.12 740.677 1609.7 741.976 1611.55 747.822C1613.56 754.136 1618.44 752.856 1618.44 746.016ZM1286.88 1525.97C1285.53 1525.42 1284.93 1524.18 1285.53 1523.19C1287.25 1520.42 1289.66 1521.09 1289.66 1524.34C1289.66 1525.95 1289.59 1527.2 1289.5 1527.11C1289.41 1527.03 1288.23 1526.51 1286.88 1525.97ZM779.126 1455C779.126 1450.17 779.507 1448.19 779.972 1450.61C780.438 1453.02 780.438 1456.98 779.972 1459.39C779.507 1461.81 779.126 1459.83 779.126 1455ZM1324.44 1431.84C1323.75 1431.15 1322.6 1430.51 1321.89 1430.42C1319.88 1430.17 1309.21 1425.9 1306.01 1424.07C1304.44 1423.18 1301.5 1419.48 1299.48 1415.85C1296.33 1410.21 1296.12 1408.19 1298.04 1401.77C1301.51 1390.21 1309.31 1382.7 1319.24 1381.36C1327.49 1380.26 1334.02 1381.6 1365.02 1390.78C1379.13 1394.95 1378.92 1394.66 1378.9 1410.47C1378.89 1412.3 1379.55 1413.38 1380.36 1412.88C1381.18 1412.38 1382.31 1412.74 1382.89 1413.67C1383.82 1415.17 1376.12 1420.27 1359.16 1429.38C1354.01 1432.15 1326.68 1434.08 1324.44 1431.84ZM1295.9 1425.87C1293.36 1423.82 1291.76 1421.66 1292.34 1421.07C1292.92 1420.49 1296 1422.14 1299.18 1424.74C1302.36 1427.34 1303.96 1429.5 1302.74 1429.54C1301.51 1429.58 1298.44 1427.93 1295.9 1425.87ZM1358.67 1357.34C1356.15 1355.71 1356.2 1355.45 1359.04 1355.42C1360.86 1355.4 1362.89 1356.27 1363.55 1357.34C1365.08 1359.82 1362.5 1359.82 1358.67 1357.34ZM1438.78 1275.8C1438.8 1271.62 1439.23 1271.08 1440.7 1273.36C1443.17 1277.18 1443.17 1281.17 1440.7 1281.17C1439.63 1281.17 1438.76 1278.75 1438.78 1275.8ZM1457.3 1181.56C1456.64 1180.49 1457.03 1179.61 1458.17 1179.61C1459.3 1179.61 1460.23 1180.49 1460.23 1181.56C1460.23 1182.64 1459.85 1183.52 1459.37 1183.52C1458.9 1183.52 1457.97 1182.64 1457.3 1181.56ZM1436.43 1176.32C1437.84 1175.76 1439.53 1175.83 1440.17 1176.48C1440.82 1177.13 1439.67 1177.59 1437.61 1177.5C1435.34 1177.41 1434.87 1176.95 1436.43 1176.32ZM1161.36 1104.97C1150.29 1090.38 1144.05 1080.42 1143.91 1077.11C1143.86 1076.07 1146.99 1080.02 1150.87 1085.9C1154.74 1091.79 1160.75 1100.56 1164.23 1105.39C1177.84 1124.31 1175.8 1124.01 1161.36 1104.97ZM1196.07 1008.21C1190.25 1004.59 1188.52 1000.54 1194.12 1003.62C1199.94 1006.81 1205.45 1011.52 1203.4 1011.53C1202.32 1011.53 1199.03 1010.04 1196.07 1008.21ZM1290.66 986.872C1291.3 983.557 1301.28 979.698 1304.34 981.585C1307.69 983.659 1303.41 986.53 1298.72 985.353C1295.92 984.65 1294.37 984.908 1295.02 985.967C1295.64 986.972 1294.77 988.322 1293.09 988.968C1290.95 989.787 1290.22 989.153 1290.66 986.872ZM1342.17 964.235C1342.69 962.869 1344.95 960.61 1347.19 959.214C1351.22 956.693 1351.23 956.71 1347.64 961.636C1343.82 966.876 1340.56 968.425 1342.17 964.235ZM1575.63 964.133C1576.08 963.785 1579.52 961.515 1583.28 959.089L1590.12 954.677L1584.26 959.712C1581.04 962.481 1577.59 964.751 1576.61 964.756C1575.62 964.762 1575.18 964.481 1575.63 964.133ZM1605.76 932.539C1607.27 928.242 1608.54 922.603 1608.59 920.007C1608.63 917.411 1609.2 915.813 1609.84 916.457C1611.66 918.27 1608.71 932.73 1605.7 936.753C1603.46 939.752 1603.47 939.05 1605.76 932.539ZM1475.86 888.105C1475.86 887.3 1479.08 886.641 1483.02 886.641C1486.96 886.641 1489.52 887.3 1488.72 888.105C1487.91 888.911 1484.69 889.57 1481.56 889.57C1478.42 889.57 1475.86 888.911 1475.86 888.105ZM652.617 880.781C648.421 876.484 645.826 873.043 646.85 873.134C648.641 873.293 662.698 888.594 661.053 888.594C660.609 888.594 656.813 885.078 652.617 880.781ZM1587.19 874.807C1587.19 873.669 1588.07 873.281 1589.14 873.945C1590.21 874.609 1591.09 875.54 1591.09 876.014C1591.09 876.487 1590.21 876.875 1589.14 876.875C1588.07 876.875 1587.19 875.944 1587.19 874.807ZM1059.84 821.311C1059.84 820.774 1062.48 818.971 1065.7 817.305C1068.93 815.638 1071.56 814.714 1071.56 815.251C1071.56 815.788 1068.93 817.591 1065.7 819.258C1062.48 820.924 1059.84 821.848 1059.84 821.311ZM1280.18 795.463C1281.59 794.898 1283.28 794.968 1283.92 795.617C1284.57 796.266 1283.42 796.727 1281.36 796.643C1279.09 796.549 1278.62 796.086 1280.18 795.463ZM613.048 641.548C617.002 635.444 620.391 632.788 620.391 635.792C620.391 637.921 615.879 645.443 613.751 646.865C609.092 649.975 608.838 648.048 613.048 641.548ZM1607.82 592.291C1606.76 589.508 1606.99 589.283 1608.91 591.198C1610.25 592.523 1610.85 594.099 1610.25 594.7C1609.65 595.301 1608.55 594.217 1607.82 592.291ZM882.109 503.207C882.109 502.766 884.526 499.679 887.481 496.349C890.435 493.019 905.156 476.292 920.195 459.178C940.937 435.575 948.143 428.554 950.038 430.099C951.781 431.52 953.998 431.471 957.363 429.938C962.932 427.401 963.539 428.785 959.039 433.757C956.887 436.136 954.213 436.901 950.59 436.176C946.301 435.319 944.606 436.176 941.711 440.664C934.714 451.511 882.109 506.712 882.109 503.207ZM717.196 484.869C716.136 482.086 716.36 481.861 718.289 483.776C719.624 485.101 720.224 486.677 719.623 487.278C719.022 487.88 717.929 486.796 717.196 484.869ZM880.408 480.755C882.941 477.869 887.876 472.653 891.374 469.164C894.872 465.676 897.734 461.821 897.734 460.599C897.734 459.377 899.932 456.341 902.617 453.852C905.303 451.363 907.5 448.514 907.5 447.52C907.5 446.526 908.818 444.619 910.43 443.281C912.829 441.29 913.359 441.423 913.359 444.019C913.359 445.762 912.481 447.187 911.406 447.187C910.332 447.187 909.446 448.286 909.436 449.629C909.426 450.972 903.754 458.223 896.831 465.742C889.908 473.262 884.203 480.41 884.153 481.628C884.103 482.845 882.204 484.327 879.933 484.921C875.922 485.97 875.935 485.85 880.408 480.755ZM920.037 476.484C930.274 464.558 932.329 462.686 927.538 469.648C925.321 472.871 921.029 477.705 918 480.391C914.342 483.634 915.026 482.322 920.037 476.484ZM727.813 478.553C727.813 477.542 728.827 476.088 730.067 475.321C731.4 474.498 731.795 474.782 731.032 476.016C730.322 477.164 730.846 478.549 732.195 479.093C733.675 479.69 733.293 480.143 731.231 480.236C729.351 480.321 727.813 479.564 727.813 478.553ZM712.188 474.531C710.427 473.394 710.186 472.626 711.584 472.608C712.863 472.592 714.453 473.457 715.117 474.531C716.616 476.956 715.94 476.956 712.188 474.531ZM734.568 466.589C732.564 463.346 734.363 462.897 737.167 465.939C738.552 467.442 738.824 468.672 737.77 468.672C736.717 468.672 735.276 467.734 734.568 466.589ZM720.99 464.788C720.306 463.681 721.09 463.353 722.828 464.02C726.212 465.319 726.831 466.719 724.022 466.719C723.011 466.719 721.647 465.85 720.99 464.788ZM720 459.137C720 458.063 720.879 456.64 721.953 455.977C723.027 455.313 723.906 455.648 723.906 456.723C723.906 457.797 723.027 459.219 721.953 459.883C720.879 460.547 720 460.211 720 459.137ZM735.625 458.906C735.625 457.832 736.452 456.953 737.463 456.953C738.474 456.953 739.844 457.832 740.508 458.906C741.172 459.98 740.345 460.859 738.67 460.859C736.995 460.859 735.625 459.98 735.625 458.906ZM873.048 456.602C873.747 452.075 880.478 442.067 884.52 439.542C890.318 435.922 892.87 439.847 887.679 444.402C885.321 446.471 884.104 446.951 884.975 445.469C886.057 443.629 885.712 443.057 883.888 443.665C882.42 444.154 881.199 446.573 881.175 449.04C881.152 451.507 879.224 454.797 876.891 456.352C873.54 458.586 872.733 458.639 873.048 456.602ZM725.859 455C725.859 453.926 726.738 453.047 727.813 453.047C728.887 453.047 729.766 453.926 729.766 455C729.766 456.074 728.887 456.953 727.813 456.953C726.738 456.953 725.859 456.074 725.859 455ZM738.555 455C737.891 453.926 738.227 453.047 739.301 453.047C740.375 453.047 741.797 453.926 742.461 455C743.125 456.074 742.789 456.953 741.715 456.953C740.641 456.953 739.219 456.074 738.555 455ZM887.671 454.023C891.417 447.327 895.142 443.281 897.561 443.281C898.84 443.281 901.212 440.11 902.831 436.234C904.451 432.358 906.303 429.714 906.946 430.358C907.59 431.002 909.493 430.438 911.174 429.104C917.77 423.874 899.613 445.424 891.002 453.047C886.491 457.04 885.884 457.218 887.671 454.023ZM723.906 449.025C723.906 447.888 724.785 447.5 725.859 448.164C726.934 448.828 727.813 449.759 727.813 450.232C727.813 450.706 726.934 451.094 725.859 451.094C724.785 451.094 723.906 450.163 723.906 449.025ZM741.484 449.141C741.484 448.066 742.415 447.187 743.553 447.187C744.69 447.187 745.078 448.066 744.414 449.141C743.75 450.215 742.819 451.094 742.346 451.094C741.872 451.094 741.484 450.215 741.484 449.141ZM743.438 443.408C743.438 439.911 747.379 431.248 750.299 428.328C751.916 426.711 752.777 424.641 752.213 423.727C751.648 422.814 752.08 421.515 753.171 420.84C754.263 420.165 755.156 418.224 755.156 416.526C755.156 414.828 756.694 412.271 758.574 410.844C760.509 409.375 760.971 408.222 759.64 408.187C758.346 408.153 759.537 405.874 762.288 403.124C767.853 397.559 771.326 398.222 766.212 403.872C764.428 405.843 762.969 408.367 762.969 409.48C762.969 410.594 761.154 413.812 758.936 416.632C756.717 419.452 755.389 422.547 755.984 423.51C756.58 424.473 755.903 426.226 754.48 427.407C753.058 428.588 750.729 433.082 749.306 437.394C746.978 444.447 743.438 448.076 743.438 443.408ZM1480.65 433.537C1463.81 412.265 1447.56 394.736 1439.49 389.132C1420.49 375.937 1402 362.625 1394.6 356.81C1390.19 353.344 1384.91 349.397 1382.88 348.039C1380.84 346.681 1381.82 346.869 1385.04 348.458C1388.26 350.047 1397.05 355.71 1404.57 361.044C1412.09 366.377 1424.2 374.37 1431.47 378.805C1445.25 387.204 1462.95 404.332 1476.25 422.138C1480.52 427.859 1485.79 434.454 1487.96 436.794C1490.13 439.134 1491.55 442.109 1491.12 443.405C1490.69 444.7 1485.98 440.26 1480.65 433.537ZM921.202 435.321C921.174 432.435 928.815 423.75 931.383 423.75C932.026 423.75 931.906 426.167 931.116 429.121C930.326 432.075 928.425 434.492 926.891 434.492C925.357 434.492 923.456 435.371 922.667 436.445C921.835 437.578 921.219 437.105 921.202 435.321ZM895.781 434.731C895.781 434.326 897.319 432.788 899.199 431.313C902.297 428.884 902.366 428.953 899.937 432.051C897.385 435.304 895.781 436.339 895.781 434.731ZM741.484 427.541C741.484 426.403 742.363 426.016 743.438 426.68C744.512 427.344 745.391 428.274 745.391 428.748C745.391 429.222 744.512 429.609 743.438 429.609C742.363 429.609 741.484 428.679 741.484 427.541ZM915.95 424.894C914.253 422.96 914.228 421.71 915.852 420.086C918.572 417.365 921.839 417.184 920.195 419.844C918.492 422.6 921.796 422.274 925.147 419.355C926.688 418.013 925.832 419.331 923.244 422.285C920.655 425.239 918.471 427.623 918.39 427.582C918.309 427.541 917.211 426.332 915.95 424.894ZM867.461 423.75C868.125 422.676 869.056 421.797 869.529 421.797C870.003 421.797 870.391 422.676 870.391 423.75C870.391 424.824 869.46 425.703 868.322 425.703C867.185 425.703 866.797 424.824 867.461 423.75ZM745.391 417.891C746.54 415.742 748.776 413.984 750.359 413.984C752.747 413.984 752.822 414.648 750.797 417.891C749.455 420.039 747.219 421.797 745.829 421.797C743.905 421.797 743.8 420.862 745.391 417.891ZM907.5 418.867C907.5 417.256 906.621 415.937 905.547 415.937C904.473 415.937 903.594 414.619 903.594 413.008C903.594 408.623 906.887 409.477 908.117 414.181C908.839 416.94 910.033 417.777 911.763 416.736C913.759 415.535 913.735 415.929 911.655 418.492C908.356 422.56 907.5 422.637 907.5 418.867ZM988.555 412.031C987.891 410.957 989.209 410.078 991.484 410.078C993.76 410.078 995.078 410.957 994.414 412.031C993.75 413.105 992.432 413.984 991.484 413.984C990.537 413.984 989.219 413.105 988.555 412.031ZM767.852 394.453C768.516 393.379 769.446 392.5 769.92 392.5C770.394 392.5 770.781 393.379 770.781 394.453C770.781 395.527 769.85 396.406 768.713 396.406C767.575 396.406 767.188 395.527 767.852 394.453Z" fill="black"/>
<g clip-path="url(#clip0_1_5)">
<path d="M661 2000V1920H1079.5H1498V2000V2080H1079.5H661V2000ZM940.035 2055.02C946.614 2053.17 952.316 2048.69 955.452 2042.93C957.92 2038.39 958.472 2036.07 958.824 2028.75L959.245 2020H948.622H938V2023.55C938 2027.85 935.723 2032.54 932.905 2034.05C929.917 2035.65 919.608 2035.37 916.173 2033.59C914.561 2032.76 912.963 2031.35 912.621 2030.46C912.28 2029.56 912 2015.34 912 1998.85C912 1968.33 912.248 1966.08 915.913 1963.3C920.255 1960 931.887 1961.01 935.487 1964.99C936.51 1966.12 937.5 1969.15 937.773 1971.99L938.254 1977H949.127H960L959.988 1972.25C959.975 1967.17 958.073 1958.87 956.062 1955.12C949.885 1943.57 935.005 1938.14 917.163 1940.91C904.589 1942.86 897.245 1947.86 892.804 1957.5C890.532 1962.43 890.5 1963.01 890.5 1999C890.5 2034.1 890.582 2035.68 892.623 2040.09C896.717 2048.94 904.038 2054.28 914.5 2056.04C920.375 2057.03 934.982 2056.45 940.035 2055.02ZM1458.17 2054.36C1461.97 2053.23 1464.83 2051.44 1468.15 2048.13C1474.49 2041.8 1476.35 2035.37 1475.84 2021.61C1475.26 2005.82 1472.84 2003.09 1447.91 1990.02C1428.76 1979.99 1429 1980.21 1429 1972.88C1429 1964.82 1431.17 1962.58 1439.85 1961.67C1447.84 1960.84 1452.65 1962.6 1453.55 1966.68C1453.89 1968.23 1454.35 1970.08 1454.57 1970.79C1454.86 1971.75 1457.54 1972 1465.23 1971.79L1475.5 1971.5L1475.21 1966.14C1474.65 1955.75 1467.14 1945.58 1457.64 1942.33C1450.53 1939.9 1433.45 1939.9 1426.32 1942.34C1418.38 1945.06 1413.62 1949.04 1410.37 1955.68C1407.89 1960.73 1407.47 1962.9 1407.15 1972.12C1406.53 1990.19 1407.8 1991.75 1435.33 2006.78C1443.67 2011.33 1451.38 2015.93 1452.45 2017C1453.9 2018.45 1454.41 2020.38 1454.45 2024.56C1454.49 2029.5 1454.16 2030.46 1451.69 2032.58C1449.27 2034.67 1447.88 2035 1441.4 2035C1434.78 2035 1433.62 2034.71 1431.45 2032.55C1429.92 2031.01 1429 2028.95 1429 2027.05V2024H1417.87H1406.73L1407.22 2030.75C1408.5 2048.63 1421.67 2057.79 1444.17 2056.45C1448.94 2056.17 1455.24 2055.23 1458.17 2054.36ZM1380.53 2053.47C1387.2 2051.62 1393.36 2046.24 1395.67 2040.24C1397.08 2036.58 1397.5 2032.75 1397.49 2023.5C1397.48 2012.91 1397.19 2010.93 1395.1 2006.65C1392.74 2001.84 1388.16 1998.01 1384.75 1998C1383.79 1998 1383 1997.55 1383 1997C1383 1996.45 1383.94 1996 1385.1 1996C1386.25 1996 1388.68 1994.52 1390.48 1992.72C1399.07 1984.13 1397.4 1957.6 1387.68 1948.17C1381.77 1942.45 1378.03 1941.73 1351.75 1941.24L1328 1940.79V1997.87V2054.95L1345.25 2055.23C1367.06 2055.57 1374.24 2055.21 1380.53 2053.47ZM1349.67 2034.33C1349.3 2033.97 1349 2027.88 1349 2020.8V2007.94L1360.64 2008.22C1371.75 2008.49 1372.37 2008.62 1374.14 2011C1376.64 2014.37 1377.7 2024.89 1375.97 2029.08C1374.14 2033.5 1369.89 2035 1359.2 2035C1354.32 2035 1350.03 2034.7 1349.67 2034.33ZM1349 1975.5V1962H1358.94C1368.01 1962 1369.14 1962.21 1371.69 1964.41C1374.33 1966.68 1374.48 1967.27 1374.42 1974.66C1374.35 1982.12 1373.1 1986.56 1370.6 1988.23C1370 1988.64 1364.89 1988.98 1359.25 1988.98L1349 1989V1975.5ZM705.182 2024.25C705.283 2007.34 705.241 1990.8 705.089 1987.5C704.916 1983.75 705.162 1981.87 705.746 1982.5C706.26 1983.05 710.116 1992.73 714.316 2004C718.516 2015.27 723.495 2028.32 725.38 2033L728.809 2041.5L742.78 2041.78L756.751 2042.05L762.212 2028.78C765.216 2021.47 770.56 2007.87 774.087 1998.53L780.5 1981.57L780.762 2018.28L781.025 2055H791.512H802V1998V1941H796.154C792.938 1941 786.295 1941.28 781.391 1941.63L772.475 1942.27L758.002 1982.13C750.042 2004.06 743.297 2021.99 743.014 2021.99C742.731 2021.98 738.963 2012.19 734.64 2000.24C730.317 1988.28 723.567 1970.05 719.64 1959.73L712.5 1940.96L698.5 1941.23C684.704 1941.5 684.501 1941.53 684.571 1943.75C684.611 1944.99 684.723 1970.52 684.821 2000.5L685 2055H695H705L705.182 2024.25ZM878 2045.02V2035.04L857.25 2034.77L836.5 2034.5L836.22 2021.77L835.941 2009.05L852.72 2008.77L869.5 2008.5L869.787 1998.69L870.074 1988.87L853.287 1989.19L836.5 1989.5L836.221 1976.27L835.942 1963.04L856.721 1962.77L877.5 1962.5L877.781 1951.99L878.063 1941.48L846.532 1941.49L815.001 1941.5L815.001 1998.25L815 2055H846.5H878V2045.02ZM993.231 2032.25L993.5 2009.5L1008.25 2009.22L1023 2008.95V2031.97V2055H1034H1045V1998V1941H1034H1023V1965.5V1990H1008H993V1965.5V1941H982.516H972.033L971.766 1997.25C971.62 2028.19 971.639 2053.84 971.809 2054.25C971.979 2054.66 976.808 2055 982.54 2055H992.962L993.231 2032.25ZM1077.11 2051.5C1077.51 2049.85 1078.6 2045.01 1079.52 2040.75L1081.2 2033H1095.56H1109.92L1110.92 2036.75C1111.46 2038.81 1112.38 2042.75 1112.96 2045.5C1115.2 2056.13 1113.64 2055 1126.09 2055C1136.15 2055 1137.09 2054.84 1136.59 2053.25C1136.29 2052.29 1134.03 2042.73 1131.56 2032C1124.87 2002.87 1110.15 1941.82 1109.72 1941.38C1109.51 1941.17 1103.21 1941.29 1095.72 1941.65L1082.11 1942.3L1078.47 1957.4C1072.08 1983.88 1055.15 2051.45 1054.44 2053.29C1053.81 2054.94 1054.59 2055.05 1065.07 2054.78L1076.38 2054.5L1077.11 2051.5ZM1087.22 2011.25C1089.15 1999.28 1095.47 1966.36 1095.94 1965.79C1096.26 1965.39 1098.44 1975.07 1100.79 1987.29C1103.13 1999.5 1105.31 2010.51 1105.64 2011.75C1106.23 2013.97 1106.1 2014 1096.5 2014H1086.77L1087.22 2011.25ZM1231 2045.02V2035.05L1214.47 2034.77L1197.94 2034.5L1197.72 1988L1197.5 1941.5L1189 1941.2C1184.32 1941.04 1179.49 1941.16 1178.25 1941.47L1176 1942.04V1998.52V2055H1203.5H1231V2045.02ZM1262.88 2043.75L1265.32 2033H1279.59H1293.86L1296.02 2042.75C1297.21 2048.11 1298.35 2053.06 1298.56 2053.75C1299.06 2055.39 1320 2055.55 1320 2053.91C1320 2052.67 1316.25 2036.13 1307.98 2001C1304.81 1987.52 1300.56 1969.07 1298.52 1960C1296.48 1950.93 1294.62 1942.87 1294.39 1942.11C1294.04 1941 1292.39 1940.84 1286.32 1941.36C1282.13 1941.71 1275.9 1942 1272.47 1942H1266.25L1252.59 1996.75C1245.07 2026.86 1238.68 2052.3 1238.38 2053.28C1237.88 2054.93 1238.7 2055.05 1249.14 2054.78L1260.43 2054.5L1262.88 2043.75ZM1270.75 2013.25C1270.55 2012.84 1272.49 2001.48 1275.07 1988C1278.12 1972.03 1279.97 1964.37 1280.37 1966C1281.3 1969.8 1289 2011.65 1289 2012.91C1289 2014.15 1271.36 2014.49 1270.75 2013.25Z" fill="black"/>
</g>
<defs>
<clipPath id="clip0_1_5">
<rect x="661" y="1920" width="837" height="160" rx="35" fill="white"/>
</clipPath>
</defs>
</svg>
